<?xml version="1.0" encoding="utf-8"?>
<!-- Generator: Adobe Illustrator 27.5.0, SVG Export Plug-In . SVG Version: 6.00 Build 0)  -->
<svg version="1.1" xmlns="http://www.w3.org/2000/svg" xmlns:xlink="http://www.w3.org/1999/xlink" x="0px" y="0px"
	 viewBox="0 0 500 500" style="enable-background:new 0 0 500 500;" xml:space="preserve">
<g id="BACKGROUND">
	<rect x="0" style="fill:#4C2236;" width="500" height="500"/>
</g>
<g id="OBJECTS">
	<g>
		<g>
			<g>
				<path style="fill:#FABCAB;" d="M401.318,344.131c0,0,7.444-10.67,16.129-11.166c8.685-0.496,21.091-2.481,26.054-6.7
					c4.963-4.218,5.707,4.963,1.985,8.933c-3.722,3.97-10.67,4.218-10.67,4.218s15.136,6.7,24.565,6.451
					c9.429-0.248,18.61-5.459,19.354-2.729c0.744,2.729-3.97,5.955-3.97,5.955s-2.729,5.955-5.955,6.948
					c0,0-1.489,3.985-5.459,4.722c-3.97,0.737-6.948,1.809-6.948,1.809s-4.466,9.101-14.143,6.868
					c-9.677-2.233-26.054-10.655-31.513-8.677C405.288,362.741,401.318,344.131,401.318,344.131z"/>
				<g>
					<path style="fill:#F37E84;" d="M456.138,356.288c-2.825-1.338-4.409,2.243-5.294,4.176c-0.228,0.498-0.277,1.093-0.84,1.115
						c-0.478,0.018-1.077-0.218-1.549-0.309c-0.882-0.169-1.765-0.331-2.645-0.511c-1.824-0.373-3.631-0.829-5.411-1.373
						c-3.559-1.087-7.063-2.498-10.427-4.084c-0.426-0.201-0.732,0.422-0.325,0.652c5,2.831,10.381,4.737,16.008,5.886
						c1.337,0.273,2.86,0.674,4.232,0.597c1.132-0.064,1.707-1.512,2.169-2.382c0.656-1.236,2.222-4.086,3.973-2.484
						c1.32,1.208,0.264,3.324-0.345,4.594c-0.328,0.683,0.685,1.264,1.033,0.58C457.692,360.826,458.742,357.522,456.138,356.288z"
						/>
					<path style="fill:#F37E84;" d="M465.292,352.213c-1.376,0.061-2.655,0.628-3.946,1.048c-1.478,0.481-2.948,0.839-4.477,1.111
						c-3.173,0.564-6.434,0.465-9.62,0.032c-1.681-0.228-3.321-0.612-4.957-1.055c-1.63-0.441-3.188-1.105-4.838-1.471
						c-0.308-0.068-0.459,0.395-0.217,0.56c2.066,1.417,4.861,2.089,7.307,2.514c2.705,0.47,5.413,0.702,8.156,0.526
						c2.629-0.169,5.204-0.451,7.784-1c1.438-0.306,2.825-0.884,4.271-1.136c1.592-0.278,3.8,0.159,3.494,2.264
						c-0.081,0.554,0.745,0.751,0.86,0.189C469.54,353.699,467.2,352.128,465.292,352.213z"/>
					<path style="fill:#F37E84;" d="M473.518,348.648c-3.268-3.988-9.295-1.153-13.225-0.138c-6.057,1.564-11.968,0.966-18.017-0.23
						c-0.354-0.07-0.462,0.472-0.144,0.601c4.666,1.882,9.949,2.09,14.907,1.424c2.695-0.362,5.23-1.176,7.839-1.898
						c2.859-0.792,5.573-0.963,8.099,0.808C473.338,349.468,473.807,349.001,473.518,348.648z"/>
				</g>
			</g>
			<g>
				<path style="fill:#FABCAB;" d="M98.682,348.422c0,0-7.444-10.67-16.129-11.166c-8.685-0.496-21.091-2.481-26.054-6.7
					s-5.707,4.963-1.985,8.933c3.722,3.97,10.67,4.218,10.67,4.218s-15.136,6.699-24.565,6.451s-18.61-5.459-19.354-2.729
					c-0.744,2.729,3.97,5.955,3.97,5.955s2.729,5.955,5.955,6.948c0,0,1.489,3.985,5.459,4.722c3.97,0.737,6.948,1.809,6.948,1.809
					s4.466,9.101,14.144,6.868c9.677-2.233,26.054-10.655,31.513-8.677C94.712,367.032,98.682,348.422,98.682,348.422z"/>
				<g>
					<path style="fill:#F37E84;" d="M41.93,359.451c2.825-1.338,4.41,2.243,5.294,4.176c0.228,0.498,0.277,1.093,0.84,1.115
						c0.478,0.018,1.077-0.218,1.549-0.309c0.882-0.169,1.765-0.331,2.645-0.511c1.824-0.373,3.631-0.829,5.411-1.373
						c3.558-1.087,7.063-2.498,10.427-4.084c0.426-0.201,0.732,0.422,0.325,0.652c-5,2.831-10.381,4.737-16.008,5.887
						c-1.337,0.273-2.86,0.674-4.232,0.596c-1.132-0.064-1.707-1.512-2.169-2.381c-0.657-1.236-2.222-4.086-3.972-2.484
						c-1.32,1.208-0.264,3.324,0.345,4.594c0.327,0.683-0.685,1.264-1.033,0.58C40.376,363.988,39.326,360.684,41.93,359.451z"/>
					<path style="fill:#F37E84;" d="M32.776,355.375c1.376,0.061,2.655,0.627,3.946,1.048c1.478,0.481,2.948,0.839,4.477,1.111
						c3.173,0.564,6.434,0.465,9.62,0.032c1.681-0.228,3.321-0.612,4.957-1.055c1.63-0.441,3.188-1.105,4.838-1.471
						c0.308-0.068,0.459,0.395,0.217,0.561c-2.066,1.417-4.861,2.089-7.307,2.514c-2.705,0.47-5.412,0.702-8.156,0.526
						c-2.629-0.168-5.204-0.451-7.784-1c-1.438-0.306-2.825-0.884-4.271-1.136c-1.592-0.277-3.8,0.159-3.494,2.265
						c0.081,0.554-0.745,0.751-0.86,0.19C28.528,356.862,30.868,355.291,32.776,355.375z"/>
					<path style="fill:#F37E84;" d="M24.55,351.811c3.268-3.989,9.295-1.153,13.225-0.138c6.057,1.564,11.968,0.967,18.017-0.23
						c0.354-0.07,0.462,0.472,0.144,0.6c-4.666,1.882-9.949,2.09-14.907,1.424c-2.695-0.362-5.23-1.176-7.839-1.898
						c-2.86-0.792-5.573-0.963-8.099,0.808C24.73,352.63,24.261,352.164,24.55,351.811z"/>
				</g>
			</g>
			<g>
				<g>
					<g>
						<path style="fill:#FCC84F;" d="M302.936,499.87H274.16h-43.753h-4.947h-12.265h-0.019l-2.643-80.446l-4.704-124.251
							c0,0,8.873,6.414,21.643,10.01c7.328,2.051,15.929,3.178,24.87,1.633c5.608-0.972,11.089-2.109,16.22-3.285
							c17.017-3.887,30.089-8.202,30.535-8.358l0.01,0.01l3.703,187.285L302.936,499.87z"/>
						<path style="fill:#F3A61D;" d="M225.145,288.552l-7.444,5.542c0,0,1.647,22.249,28.614,22.497
							c26.967,0.248,44.575-23.172,44.575-23.172l-7.931-2.634L225.145,288.552z"/>
						<path style="fill:#EDB945;" d="M229.569,368.578c0,0,13.08,51.636,42.105,50.877l2.486,80.415h-43.753
							C230.407,499.87,226.178,381.734,229.569,368.578z"/>
					</g>
					<g>
						<g>
							<g>
								<path style="fill:#FABCAB;" d="M280.227,288.05c0,0-12.896,14.646-34.277,15.637c-21.371,0.991-23.538-16.212-23.538-16.212
									s8.436-4.619,10.671-6.844c0.894-0.894,1.079-4.739,0.962-7.499c-0.165-4.121-0.962-8.649-0.962-8.649l33.752-6.949
									c0,0-0.253,1.856-0.515,4.539c-0.515,5.258-1.05,13.674,0.262,17.299C268.565,284.824,280.227,288.05,280.227,288.05z"/>
								<path style="fill:#F37E84;" d="M266.835,257.534c0,0-0.253,1.856-0.515,4.539c-5.693,14.401-23.563,16.232-32.406,15.075
									c-0.165-4.121-0.831-12.665-0.831-12.665L266.835,257.534z"/>
							</g>
							<g>
								<g>
									<g>
										<path style="fill:#F4AB9A;" d="M222.332,245.826c0,3.791-3.296,6.865-7.361,6.865c-4.066,0-7.361-3.074-7.361-6.865
											c0-3.792,3.296-6.865,7.361-6.865C219.037,238.961,222.332,242.035,222.332,245.826z"/>
										
											<ellipse transform="matrix(0.9863 -0.1652 0.1652 0.9863 -34.4156 43.3769)" style="fill:#FABCAB;" cx="243.586" cy="228.605" rx="31.559" ry="42.46"/>
									</g>
									<g>
										<path style="fill:#863C60;" d="M246.367,239.456c-0.767-0.373-1.781-0.074-2.603,0.017
											c-0.435,0.048-1.655,0.398-1.898-0.094c-0.259-0.524,0.234-1.666,0.364-2.173c0.237-0.929,0.473-1.857,0.696-2.789
											c0.784-3.27,1.05-6.682-0.732-9.687c-0.397-0.669-1.334,0.015-0.98,0.676c1.928,3.593,0.57,7.87-0.552,11.475
											c-0.415,1.334-1.077,3.31,0.495,4.184c0.787,0.438,1.735,0.268,2.592,0.192c0.883-0.079,2.043,0.039,2.766-0.528
											C246.963,240.375,246.872,239.701,246.367,239.456z"/>
										<path style="fill:#863C60;" d="M255.612,249.415c-1.363-0.635-2.988-0.938-4.488-1.093
											c-1.327-0.137-2.705,0.04-4.002,0.333c-2.44,0.55-4.725,1.32-6.695,2.912c-0.724,0.585,0.085,1.753,0.844,1.188
											c1.669-1.244,3.788-2.349,5.896-2.513c1.318-0.102,2.638,0.023,3.938,0.245c0.582,0.099,1.164,0.226,1.727,0.405
											c0.618,0.197,1.185,0.539,1.773,0.813C256.063,252.384,257.074,250.096,255.612,249.415z"/>
										<path style="fill:#863C60;" d="M251.958,256.838c-0.325-0.234-0.688-0.401-1.077-0.494
											c-0.573-0.137-1.165-0.219-1.752-0.265c-1.332-0.104-2.647,0.114-3.919,0.503c-0.931,0.284-0.512,1.912,0.447,1.674
											c1.108-0.274,2.211-0.364,3.35-0.298c0.536,0.031,1.051,0.133,1.577,0.229c0.324,0.059,0.638,0.077,0.966,0.09
											c0.404,0.017,0.811,0.088,1.015-0.36C252.813,257.375,252.328,257.104,251.958,256.838z"/>
										<g>
											<path style="fill:#863C60;" d="M230.237,209.57c-2.405,1.097-4.676,2.545-6.592,4.374
												c-0.902,0.861-1.778,1.786-2.492,2.811c-0.417,0.599-0.778,1.217-1.107,1.866c-0.31,0.611-0.814,1.261-0.86,1.965
												c-0.026,0.392,0.486,1.012,0.891,0.6c0.275-0.28,0.383-0.331,0.583-0.617c0.072-0.103,0.145-0.206,0.218-0.308
												c0.204-0.287,0.405-0.574,0.639-0.837c0.521-0.587,1.027-1.187,1.553-1.77c0.792-0.879,1.574-1.75,2.453-2.547
												c1.677-1.52,3.479-2.86,5.488-3.914C232.031,210.657,231.296,209.087,230.237,209.57z"/>
											<path style="fill:#863C60;" d="M263.359,210.438c-0.444-0.607-1.082-0.97-1.719-1.351c-0.5-0.3-0.964-0.607-1.505-0.834
												c-0.93-0.39-1.887-0.711-2.863-0.963c-2.106-0.543-4.268-0.693-6.435-0.561c-1.307,0.08-1.021,2.043,0.257,2
												c2.024-0.069,4.075,0.213,6.028,0.739c0.893,0.24,1.74,0.572,2.604,0.895c0.546,0.204,1.1,0.359,1.634,0.601
												c0.408,0.185,0.783,0.388,1.23,0.468C263.098,211.523,263.741,210.962,263.359,210.438z"/>
											<path style="fill:#863C60;" d="M231.29,227.597c0.46,1.889,0.137,3.591-0.723,3.8c-0.859,0.209-1.929-1.153-2.389-3.042
												c-0.46-1.889-0.137-3.591,0.723-3.8C229.76,224.345,230.829,225.707,231.29,227.597z"/>
											<path style="fill:#863C60;" d="M258.546,223.983c0,2.205-0.813,3.993-1.816,3.993c-1.003,0-1.816-1.788-1.816-3.993
												s0.813-3.993,1.816-3.993C257.733,219.99,258.546,221.778,258.546,223.983z"/>
										</g>
									</g>
								</g>
								<g>
									<g>
										<path style="fill:#96507E;" d="M287.925,212.332c1.652,3.635-4.636,2.974-4.636,2.974s-2.128,8.475-1.691,8.669
											l-6.521,0.758c0,0,0.408-3.858-1.05-15.054c-1.535-11.74-12.906-21.672-28.456-26.794
											c-15.55-5.131-32.917,8.601-34.569,25.307c-1.652,16.706,3.664,34.734,3.664,34.734s-1.186,0.505-6.628-2.099
											c-5.452-2.605-6.298-12.226-6.298-12.226s-0.33,2.255-3.479,4.568c-3.042,2.245-0.039-11.944,0.146-12.848
											c-0.214,0.496-2.002,4.451-5.102,5.073c-3.314,0.661,0.661-15.55,0.661-15.55s-2.323,0.991-3.975,3.314
											c-0.651,0.913-1.05,0.846-1.293,0.418v-0.01c-0.36-0.641-0.36-2.07-0.36-2.07c0.496-16.706,9.262-19.184,11.079-24.17
											c1.827-4.995-7.775-0.311-9.262-5.763c-1.487-5.462,32.421-15.384,32.421-15.384s-12.566-7.279-9.505-12.41
											c4.218-7.279,52.519-1.487,63.433,14.558c10.749,15.783,5.219,35.259,5.044,35.881c0.02-0.019,0.029-0.039,0.058-0.068
											c0.467-0.564,3.236-3.693,7.308-3.392c4.461,0.33-4.043,7.61-4.043,7.61S286.272,208.688,287.925,212.332z"/>
										<path style="fill:#BF6A9A;" d="M281.549,204.208c0,0.01-0.01,0.02-0.01,0.02s2.41-23.324-14.131-34.909
											c-16.541-11.575-40.856-13.898-40.856-13.898s-6.832,0.496-1.186,5.792c5.646,5.297,5.783,6.288,5.783,6.288
											s-33.713,7.814-32.227,11.847c1.487,4.033,7.279,2.712,5.627,5.685c-1.652,2.974-16.162,16.21-15.851,28.533
											c-0.36-0.641-0.36-2.07-0.36-2.07c0.496-16.706,9.262-19.184,11.079-24.17c1.827-4.995-7.775-0.311-9.262-5.763
											c-1.487-5.462,32.421-15.384,32.421-15.384s-12.566-7.279-9.505-12.41c4.218-7.279,52.519-1.487,63.433,14.558
											C287.254,184.11,281.724,203.586,281.549,204.208z"/>
										<ellipse style="fill:#FABCAB;" cx="278.41" cy="230.938" rx="7.527" ry="7.692"/>
									</g>
									<path style="fill:#F37E84;" d="M213.582,238.778c0,0-4.409-34.011,16.329-42.303c20.737-8.292,38.862,1.368,44.087,25.027
										l0.827,3.952c0,0,2.313-36.894-24.58-44.432c-26.894-7.538-43.527,11.684-41.421,31.736
										C210.929,232.809,213.582,238.778,213.582,238.778z"/>
									<g>
										<path style="fill:#FCC84F;" d="M213.819,239.663c0,0-5.796-36.598,15.378-45.696c21.174-9.098,39.68,1.501,45.015,27.46
											l0.845,4.337c0,0,2.362-40.481-25.098-48.752c-27.46-8.271-44.444,12.82-42.293,34.821
											C209.816,233.833,213.819,239.663,213.819,239.663z"/>
										<g>
											<defs>
												<path id="SVGID_1_" d="M213.819,239.663c0,0-5.796-36.598,15.378-45.696c21.174-9.098,39.68,1.501,45.015,27.46
													l0.845,4.337c0,0,2.362-40.481-25.098-48.752c-27.46-8.271-44.444,12.82-42.293,34.821
													C209.816,233.833,213.819,239.663,213.819,239.663z"/>
											</defs>
											<clipPath id="SVGID_00000013157340916686752830000015050002019286827965_">
												<use xlink:href="#SVGID_1_"  style="overflow:visible;"/>
											</clipPath>
											<g style="clip-path:url(#SVGID_00000013157340916686752830000015050002019286827965_);">
												<path style="fill:#F3A61D;" d="M220.957,180.802c-0.397-0.317-0.901,0.297-0.574,0.662
													c0.645,0.718,0.488,1.836,0.01,2.599c-0.572,0.913-1.497,1.665-2.383,2.256c-0.962,0.64-2.027,1.148-3.106,1.559
													c-0.475,0.181-0.959,0.335-1.45,0.465c-0.611,0.161-1.339,0.177-1.879,0.514c-0.425,0.265-0.274,1.046,0.193,1.172
													c0.721,0.194,1.61-0.099,2.314-0.288c0.589-0.157,1.167-0.354,1.731-0.586c1.227-0.505,2.332-1.24,3.362-2.07
													c1.008-0.813,2.057-1.751,2.548-2.981C222.197,182.917,221.98,181.617,220.957,180.802z"/>
												<path style="fill:#F3A61D;" d="M218.126,182.456c-0.047-0.289-0.493-0.264-0.554,0.002
													c-0.019,0.085-0.038,0.169-0.068,0.25c-0.044,0.124-0.13,0.225-0.178,0.347c-0.016,0.039-0.028,0.079-0.043,0.119
													c-0.003,0.007-0.022,0.053-0.027,0.068c-0.009,0.019-0.02,0.042-0.022,0.047c-0.018,0.037-0.037,0.075-0.056,0.111
													c-0.032,0.061-0.067,0.122-0.103,0.181c-0.008,0.013-0.086,0.12-0.022,0.035c-0.021,0.028-0.04,0.057-0.061,0.084
													c-0.046,0.062-0.094,0.122-0.144,0.18c-0.023,0.027-0.046,0.053-0.069,0.079c-0.014,0.016-0.028,0.031-0.043,0.047
													c0.037-0.039,0.043-0.045,0.017-0.019c-0.101,0.094-0.193,0.195-0.298,0.284c-0.055,0.046-0.111,0.09-0.169,0.131
													c-0.026,0.019-0.053,0.038-0.079,0.056c-0.006,0.004-0.026,0.016-0.042,0.026c-0.116,0.066-0.234,0.129-0.357,0.18
													c-0.228,0.094-0.46,0.199-0.696,0.268c-0.391,0.114-0.31,0.733,0.08,0.779c0.205,0.025,0.411,0.021,0.616-0.002
													c0.191-0.022,0.379-0.096,0.553-0.177c0.324-0.15,0.632-0.353,0.894-0.597c0.289-0.269,0.524-0.597,0.694-0.953
													c0.086-0.18,0.159-0.369,0.212-0.561C218.245,183.112,218.178,182.77,218.126,182.456z"/>
												<path style="fill:#F3A61D;" d="M245.841,182.546c-0.735-1.986-2.298-3.53-4.226-4.379
													c-4.055-1.786-9.242-0.755-12.122,2.687c-1.776,2.122-2.438,4.83-2.006,7.556c0.109,0.686,1.182,0.697,1.112-0.032
													c-0.487-5.098,4.202-9.459,9.157-9.382c2.109,0.033,4.276,0.809,5.651,2.466c0.697,0.84,1.136,1.893,1.275,2.974
													c0.063,0.492,0.056,1.01-0.027,1.5c-0.092,0.543-0.363,1.036-0.417,1.583c-0.053,0.54,0.637,1.055,1.093,0.624
													C246.711,186.833,246.436,184.155,245.841,182.546z"/>
												<path style="fill:#F3A61D;" d="M239.383,184.77c-0.476-0.859-1.329-1.48-2.291-1.668
													c-1.057-0.206-2.161,0.073-3.06,0.644c-0.973,0.618-1.645,1.594-1.967,2.693c-0.201,0.686-0.313,1.39-0.312,2.106
													c0.001,0.385-0.068,0.939,0.288,1.188c0.458,0.32,0.991-0.096,0.943-0.602c-0.047-0.49,0.051-1.04,0.156-1.519
													c0.117-0.532,0.317-1.041,0.613-1.499c0.5-0.774,1.195-1.339,2.097-1.539c0.751-0.167,1.503,0.037,2.007,0.581
													c0.2,0.216,0.374,0.542,0.464,0.885c0.076,0.288,0.085,0.616-0.044,0.936c-0.148,0.364-0.08,0.785,0.293,0.988
													c0.321,0.174,0.833,0.071,0.988-0.293C239.971,186.698,239.894,185.691,239.383,184.77z"/>
												<path style="fill:#F3A61D;" d="M263.481,185.617c-0.702,0.134-1.358,0.426-2.072,0.537
													c-0.706,0.109-1.436,0.105-2.145,0.021c-1.448-0.171-2.857-0.767-3.977-1.702c-2.058-1.72-3.056-4.579-2.71-7.213
													c0.116-0.887-1.21-1.008-1.367-0.148c-0.6,3.294,0.728,6.699,3.345,8.781c1.284,1.021,2.861,1.63,4.478,1.854
													c1.601,0.222,3.687,0.127,5.062-0.806C264.819,186.45,264.271,185.467,263.481,185.617z"/>
												<path style="fill:#F3A61D;" d="M261.196,182.239c-0.297-0.169-0.4-0.156-0.672-0.121
													c-0.023,0.003-0.079,0.009-0.103,0.012c-0.116,0.007-0.233,0.011-0.35,0.006c-0.128-0.005-0.254-0.019-0.381-0.036
													c-0.027-0.004-0.026-0.003-0.037-0.004c-0.01-0.003-0.009-0.004-0.037-0.01c-0.062-0.015-0.124-0.029-0.186-0.047
													c-0.123-0.034-0.244-0.075-0.363-0.123c-0.044-0.018-0.088-0.038-0.132-0.057c0-0.002-0.103-0.052-0.11-0.056
													c-0.206-0.114-0.409-0.248-0.58-0.411c-0.092-0.088-0.177-0.184-0.257-0.283c-0.04-0.05-0.079-0.1-0.116-0.152
													c-0.008-0.012-0.033-0.05-0.051-0.077c-0.126-0.211-0.228-0.433-0.315-0.664c-0.182-0.484-0.231-0.992-0.149-1.502
													c0.051-0.318-0.212-0.627-0.523-0.664c-0.353-0.041-0.587,0.208-0.663,0.523c-0.335,1.387,0.104,2.9,1.165,3.863
													c0.508,0.461,1.116,0.807,1.784,0.976c0.31,0.079,0.631,0.131,0.951,0.141c0.421,0.013,0.95,0.02,1.24-0.326
													C261.562,182.929,261.577,182.455,261.196,182.239z"/>
												<path style="fill:#F3A61D;" d="M269.058,198.267c-0.091-0.697-0.267-1.394-0.529-2.046
													c-0.525-1.311-1.382-2.583-2.523-3.434c-2.587-1.929-6.12-2.172-8.958-0.654c-0.646,0.345-0.018,1.266,0.621,0.943
													c2.315-1.167,5.335-0.903,7.337,0.772c0.885,0.741,1.602,1.646,2.048,2.717c0.247,0.592,0.42,1.211,0.499,1.848
													c0.078,0.628-0.028,1.265,0.062,1.884c0.115,0.789,1.186,0.595,1.399-0.003
													C269.23,199.691,269.14,198.891,269.058,198.267z"/>
												<path style="fill:#F3A61D;" d="M265.865,197.83c-0.044-0.301-0.118-0.604-0.229-0.888
													c-0.215-0.551-0.551-1.05-0.985-1.451c-0.956-0.883-2.283-1.12-3.52-0.81c-0.279,0.07-0.409,0.427-0.349,0.677
													c0.063,0.262,0.334,0.494,0.619,0.443c0.125-0.022,0.25-0.04,0.377-0.05c0.001,0,0.193-0.005,0.093-0.006
													c0.063,0,0.127,0.003,0.19,0.007c0.225,0.014,0.438,0.053,0.653,0.119c0.052,0.016,0.104,0.033,0.155,0.051
													c0.015,0.008,0.107,0.047,0.108,0.047c0.111,0.05,0.222,0.102,0.328,0.16c0.045,0.025,0.09,0.051,0.134,0.078
													c0.015,0.01,0.039,0.026,0.056,0.038c0.098,0.071,0.191,0.147,0.279,0.228c0.037,0.034,0.072,0.07,0.108,0.104
													c0.017,0.016,0.019,0.018,0.026,0.023c0.003,0.005,0.005,0.009,0.021,0.028c0.075,0.094,0.149,0.189,0.215,0.289
													c0.118,0.179,0.206,0.367,0.276,0.569c0.032,0.092,0.059,0.186,0.083,0.28c0.005,0.028,0.016,0.082,0.019,0.099
													c0.01,0.059,0.018,0.119,0.024,0.179c0.013,0.119,0.023,0.241,0.019,0.36c-0.001,0.031-0.005,0.063-0.007,0.094
													c-0.012,0.208,0.029,0.36,0.09,0.558c0.128,0.414,0.812,0.476,1.027,0.11c0.204-0.347,0.23-0.589,0.222-0.955
													C265.895,198.084,265.884,197.956,265.865,197.83z"/>
												<path style="fill:#F3A61D;" d="M274.805,207.382c-0.569-0.459-1.101-0.897-1.348-1.63
													c-0.242-0.718-0.09-1.55,0.338-2.165c0.297-0.428-0.3-0.93-0.635-0.516c-0.65,0.804-0.926,1.909-0.676,2.919
													c0.116,0.469,0.315,0.888,0.61,1.271c0.134,0.174,0.286,0.333,0.454,0.475c0.258,0.219,0.505,0.335,0.825,0.441
													C274.806,208.321,275.16,207.669,274.805,207.382z"/>
												<path style="fill:#F3A61D;" d="M275.718,209.038c-0.463-0.32-0.973-0.419-1.475-0.645
													c-0.349-0.156-0.672-0.363-0.972-0.598c-0.752-0.59-1.364-1.33-1.658-2.247c-0.262-0.82-0.261-1.703-0.042-2.533
													c0.21-0.796,0.851-1.652,1.448-2.204c0.409-0.378-0.136-1.029-0.56-0.662c-1.615,1.396-2.228,3.914-1.566,5.936
													c0.325,0.994,0.95,1.926,1.783,2.564c0.775,0.594,1.941,1.245,2.932,0.901
													C275.802,209.484,275.918,209.175,275.718,209.038z"/>
												<path style="fill:#F3A61D;" d="M219.754,196.987c-3.338-0.992-7.047,0.547-8.758,3.576
													c-0.849,1.504-1.039,3.268-0.77,4.958c0.253,1.59,1.078,3.79,2.681,4.441c0.327,0.133,0.709-0.166,0.509-0.519
													c-0.377-0.665-0.875-1.245-1.237-1.916c-0.325-0.601-0.557-1.241-0.692-1.911c-0.282-1.399-0.083-2.863,0.545-4.145
													c1.299-2.652,4.63-4.035,7.457-3.404C220.192,198.225,220.438,197.19,219.754,196.987z"/>
												<path style="fill:#F3A61D;" d="M219.606,201.011c-1.27-0.736-2.855-0.765-4.138-0.041c-1.225,0.691-1.954,2.027-2,3.415
													c-0.012,0.348,0.023,0.713,0.103,1.052c0.061,0.261,0.21,0.547,0.332,0.786c0.093,0.184,0.197,0.344,0.357,0.477
													c0.289,0.24,0.855,0.069,0.796-0.37c-0.048-0.355-0.211-0.659-0.246-1.016c-0.017-0.172-0.055-0.336-0.062-0.51
													c-0.014-0.341,0.027-0.672,0.108-1.003c0.131-0.536,0.406-1.023,0.85-1.423c0.019-0.017,0.039-0.035,0.114-0.09
													c0.056-0.042,0.113-0.082,0.171-0.12c0.058-0.038,0.118-0.074,0.178-0.109c0.016-0.009,0.14-0.073,0.167-0.089
													c0.257-0.118,0.535-0.211,0.811-0.27c0.695-0.147,1.369-0.038,2.005,0.262c0.236,0.112,0.543-0.065,0.641-0.279
													C219.898,201.455,219.839,201.146,219.606,201.011z"/>
												<path style="fill:#F3A61D;" d="M210.539,195.602c-0.141-1.06-0.518-2.029-1.319-2.759
													c-0.387-0.352-0.997,0.2-0.768,0.636c0.401,0.765,0.748,1.568,0.797,2.44c0.041,0.727-0.117,1.436-0.434,2.09
													c-0.285,0.588-0.737,1.102-1.264,1.486c-0.571,0.415-1.258,0.616-1.821,1.031c-0.291,0.215-0.183,0.633,0.152,0.721
													c0.957,0.25,1.992-0.307,2.723-0.902c0.7-0.569,1.284-1.3,1.623-2.141C210.554,197.397,210.654,196.462,210.539,195.602
													z"/>
												<path style="fill:#F3A61D;" d="M208.892,213.217c-0.058-0.165-0.153-0.307-0.283-0.424
													c-0.068-0.046-0.136-0.092-0.204-0.138c0.022,0.001,0.017-0.005-0.045-0.027c-0.01-0.003-0.019-0.007-0.029-0.01
													c-0.02-0.007-0.039-0.013-0.059-0.019c-0.035-0.011-0.07-0.021-0.105-0.032c-0.002-0.001-0.005,0-0.007-0.001
													c-0.095-0.021-0.192-0.031-0.292-0.025c0.009,0.002,0.014,0.003,0.023,0.005c-0.016,0.001-0.032-0.006-0.048-0.003
													l-0.019,0.003c-0.175,0.01-0.337,0.063-0.485,0.157c-0.107,0.064-0.193,0.147-0.259,0.249
													c-0.108,0.133-0.175,0.283-0.201,0.452c-0.024,0.162-0.007,0.32,0.052,0.473c0.016,0.158,0.292,0.424,0.468,0.543
													c0.136,0.093,0.454,0.143,0.616,0.126c0.134-0.005,0.258-0.042,0.37-0.11c0.121-0.048,0.224-0.124,0.309-0.226
													c0.094-0.099,0.158-0.213,0.19-0.343c0.055-0.125,0.076-0.257,0.061-0.396L208.892,213.217z"/>
												<path style="fill:#F3A61D;" d="M223.528,190.021c-1.367,0-1.416,2.127-0.044,2.127
													C224.851,192.148,224.9,190.021,223.528,190.021z"/>
												<path style="fill:#F3A61D;" d="M251.893,186.265c-0.074-0.082-0.162-0.141-0.265-0.175
													c-0.092-0.049-0.192-0.073-0.299-0.071c-0.068,0.007-0.136,0.015-0.204,0.022c-0.141,0.035-0.263,0.102-0.368,0.202
													c-0.079,0.098-0.158,0.196-0.237,0.295c-0.001,0.003-0.002,0.005-0.004,0.008c-0.002,0.005-0.005,0.011-0.007,0.016
													c-0.005,0.012-0.01,0.024-0.015,0.036c-0.01,0.023-0.019,0.047-0.028,0.07c-0.004,0.011-0.009,0.023-0.013,0.034
													c-0.011,0.076-0.021,0.153-0.032,0.229c0.009,0.076,0.019,0.151,0.028,0.226c0.028,0.071,0.056,0.141,0.084,0.212
													c0.046,0.062,0.091,0.124,0.137,0.186c0.063,0.049,0.125,0.099,0.188,0.149c0.073,0.031,0.147,0.063,0.22,0.094
													c0.114,0.036,0.228,0.041,0.342,0.018c0.078,0,0.151-0.019,0.219-0.056c0.076-0.02,0.142-0.057,0.199-0.111
													c0.07-0.039,0.126-0.093,0.167-0.162c0.059-0.057,0.099-0.125,0.121-0.204c0.056-0.105,0.082-0.218,0.078-0.339
													C252.103,186.719,251.998,186.492,251.893,186.265z"/>
												<path style="fill:#F3A61D;" d="M247.796,177.958c-1.066,0-0.974,1.65,0.088,1.65
													C248.949,179.609,248.857,177.958,247.796,177.958z"/>
												<path style="fill:#F3A61D;" d="M227.277,178.168c-1.135,0-1.198,1.767-0.056,1.767
													C228.356,179.934,228.419,178.168,227.277,178.168z"/>
												<path style="fill:#F3A61D;" d="M265.319,189.361c-0.844,0-0.769,1.308,0.071,1.308
													C266.234,190.668,266.159,189.361,265.319,189.361z"/>
												<path style="fill:#F3A61D;" d="M276.191,213.628c-0.928,0-0.941,1.44-0.014,1.44
													C277.105,215.068,277.118,213.628,276.191,213.628z"/>
												<path style="fill:#F3A61D;" d="M211.472,228.482c-0.094-0.441-0.219-0.876-0.363-1.303
													c-0.325-0.961-0.75-1.868-1.278-2.735c-0.96-1.578-2.331-2.889-3.875-3.896c-0.478-0.312-0.949,0.408-0.488,0.737
													c1.417,1.01,2.557,2.364,3.423,3.87c0.424,0.738,0.781,1.528,1.034,2.341c0.125,0.402,0.23,0.81,0.314,1.222
													c0.041,0.2,0.072,0.403,0.115,0.602c0.061,0.279,0.207,0.488,0.373,0.719c0.14,0.194,0.515,0.297,0.639,0.01
													c0.124-0.288,0.248-0.55,0.223-0.875C211.571,228.943,211.52,228.707,211.472,228.482z"/>
												<path style="fill:#F3A61D;" d="M209.377,232.068c-0.095-0.804-0.274-1.604-0.526-2.373
													c-0.526-1.606-1.397-2.986-2.551-4.213c-0.443-0.47-1.253,0.258-0.843,0.762c0.929,1.141,1.663,2.454,2.126,3.852
													c0.227,0.684,0.381,1.385,0.463,2.101c0.083,0.718-0.099,1.637,0.387,2.221c0.15,0.18,0.454,0.196,0.624,0.037
													c0.379-0.354,0.401-0.689,0.397-1.196C209.449,232.861,209.424,232.463,209.377,232.068z"/>
											</g>
										</g>
									</g>
								</g>
							</g>
						</g>
						<g>
							<path style="fill:#DD5B52;" d="M185.28,304.927L165.841,374.9c0,0,6.948,15.88,10.173,29.28
								c3.226,13.399,2.978,14.64,2.978,14.64s1.241,4.715,4.963,3.97c3.722-0.744,16.128-17.617,16.128-17.617s0-50.371,0-51.115
								c0-0.744-8.685-41.438-8.685-41.438L185.28,304.927z"/>
							<g>
								<path style="fill:#E47262;" d="M229.964,451.739c0.719,23.149,0.476,44.933,0.35,48.13c-0.01,0.418-0.019-0.175-0.029,0
									c-0.01,0.146-0.01,0-0.01,0h-4.937h-12.284h-18.922c-0.243-36.784,1.067-70.802-2.017-107.933
									c-1.505-18.117-2.819-33.878-4.766-53.787c-0.226-2.309-4.234-32.106-2.071-33.217l33.675-17.328l3.46-1.778l4.937,19.233
									l4.15,16.142c0,0-4.111,64.784-2.021,117.059c0.019,0.408,0.029,0.816,0.048,1.215
									C229.701,443.906,229.837,447.988,229.964,451.739z"/>
								<path style="fill:#DD5B52;" d="M232.513,280.059c0.865,0.216-1.011,41.144-1.011,41.144s-8.563-15.746-14.563-9.308
									c-6.001,6.438-7.991,8.666-8.077,7.927c-0.085-0.74,11.506-36.63,11.506-36.63S225.386,278.282,232.513,280.059z"/>
							</g>
						</g>
						<g>
							<polygon style="fill:#DD5B52;" points="316.705,302.197 348.962,370.433 339.259,421.424 310.254,394.254 306.78,306.911 
															"/>
							<g>
								<path style="fill:#E47262;" d="M323.249,499.87h-49.836h-0.029l-0.457-23.766l-5.462-152.843l0.321-19.855l0.292-18.164
									l17.202,4.548l13.042,5.258l0.01,0.01l17.717,7.143c0,0-0.185,15.423-1.487,37.212
									c-2.838,47.504,1.164,142.001,3.341,160.457C318.203,502.396,323.249,499.87,323.249,499.87z"/>
								<path style="fill:#DD5B52;" d="M268.115,281.226v42.036c0,0,5.911-11.662,17.822-5.955c0,0-3.452-29.528-5.955-33.25
									C277.478,280.335,268.115,281.226,268.115,281.226z"/>
							</g>
						</g>
					</g>
				</g>
				<g>
					<path style="fill:#FABCAB;" d="M172.527,419.328l-10.622-7.007l-71.742-47.349l5.209-20.593l65.755,29.029
						C175.763,385.323,172.527,419.328,172.527,419.328z"/>
					<path style="fill:#E47262;" d="M161.126,373.411c0,0,3.057-5.186,6.739-4.95c3.682,0.236,24.784,22.383,22.049,47.785
						c0,0-2.486,7.785-6.953,10.018c-4.466,2.233-10.435-6.933-10.435-6.933S173.285,386.562,161.126,373.411z"/>
					<path style="fill:#F4AB9A;" d="M172.527,419.328l-10.622-7.007c9.942-11.507-0.777-38.913-0.777-38.913
						C175.763,385.323,172.527,419.328,172.527,419.328z"/>
				</g>
				<g>
					<path style="fill:#FABCAB;" d="M410.747,360.764l-50.974,45.376l-12.304,10.943c0,0-8.513-17.581-10.992-23.742
						c-0.457-1.127-0.709-1.866-0.671-2.06c0.097-0.486,1.856-4.344,3.965-8.854l0.01-0.019c2.187-4.684,4.752-10.078,6.22-13.159
						c0.739-1.555,1.205-2.527,1.205-2.527l6.473,1.73l52.849-29.039L410.747,360.764z"/>
					<path style="fill:#F4AB9A;" d="M359.773,406.14l-12.304,10.943c0,0-8.513-17.581-10.992-23.742l3.295-10.914l0.01-0.019
						L344,368.452l2.002,0.797l2.964,1.186C348.966,370.434,343.427,397.442,359.773,406.14z"/>
					<path style="fill:#E47262;" d="M352.097,371.154c2.445-2.729,1.335-7.247-2.171-8.314c-1.189-0.362-2.511-0.356-3.941,0.298
						c-5.707,2.608-16.625,25.684-13.399,43.053c1.539,8.288,4.255,12.79,6.673,15.233c2.145,2.167,5.705,1.968,7.658-0.374
						l1.543-1.851c1.075-1.29,1.457-3.017,1.04-4.643c-1.654-6.447-5.344-23.818-1.135-37.083c0.066-0.21,0.147-0.421,0.236-0.621
						C349.775,374.202,350.988,372.391,352.097,371.154z"/>
				</g>
			</g>
		</g>
		<g>
			<g>
				<g>
					<path style="fill:#AA6F9D;" d="M483.875,145.367c0,0-18.45-18.06-27.28,0c0,0-11.55-11.86-20.54,0c0,0-12.11-6.77-16.77-0.14
						l-3-10.34l-0.19-0.68l-0.17-0.57c0,0,0.11-0.02,0.31-0.07c2.62-0.62,20.91-5.49,19.67-21
						C435.905,112.567,471.685,102.027,483.875,145.367z"/>
					<path style="fill:#96507E;" d="M483.875,145.367c-15.067-37.657-44.989-30.521-44.989-30.521
						c1.769,15.625-19.651,19.431-22.601,20.041c-0.23,0.05-0.36,0.07-0.36,0.07l0.17-0.75l0.14-0.64c2.62-0.62,20.91-5.49,19.67-21
						C435.905,112.567,471.685,102.027,483.875,145.367z"/>
					<path style="fill:#96507E;" d="M456.595,145.367c0-10.975-10.13-31.298-19.301-32.116l-0.305,2.799
						C443.226,117.247,452.185,127.21,456.595,145.367z"/>
					<path style="fill:#96507E;" d="M436.055,145.367c0,0,7.843-16.964,1.618-31.683l-1.375,3.296
						C438.562,125.822,437.571,133.887,436.055,145.367z"/>
				</g>
				<g>
					<path style="fill:#AA6F9D;" d="M354.107,143.856c0,0,11.502-14.725,20.468,0.545c0,0,8.666-10.006,17.341,0.462
						c0,0,10.978-5.806,15.604,0.29l2.935-9.546l0.193-0.654l0.174-0.551c0,0-0.113-0.019-0.318-0.066
						c-2.669-0.585-20.524-5-20.276-20.326C390.229,114.011,357.193,105.954,354.107,143.856z"/>
					<path style="fill:#96507E;" d="M354.107,143.856c7.567-33.814,33.148-27.861,33.148-27.861
						c-0.645,15.26,20.211,19.034,23.2,19.613c0.235,0.048,0.367,0.067,0.367,0.067l-0.174-0.721l-0.144-0.617
						c-2.669-0.585-20.524-5-20.276-20.326C390.229,114.011,357.193,105.954,354.107,143.856z"/>
					<path style="fill:#96507E;" d="M374.576,144.401c-1.047-9.198,4.089-27.764,10.825-30.434l3.882,1.779
						C383.487,117.291,376.538,128.809,374.576,144.401z"/>
					<path style="fill:#96507E;" d="M391.917,144.863c-3.823-5.135-9.852-16.461-4.45-29.732l2.922,3.958
						C385.474,127.697,388.034,135.632,391.917,144.863z"/>
				</g>
				<g>
					<g>
						<g>
							<g>
								<path style="fill:#FABCAB;" d="M414.267,130.867l-1.227,5.354c0,0-4.942,1.38-5.555,1.227
									c-0.602-0.153-3.986-1.439-4.281-1.887c-0.307-0.448,1.109-4.163,1.109-4.163s0.507-0.094,0.944-0.507
									c0.307-0.283,0.578-0.731,0.602-1.427v-1.427l0.13-0.071l7.395-4.258l-0.024,0.484v0.012l-0.318,5.991L414.267,130.867z"/>
								<path style="fill:#F37E84;" d="M413.382,123.708l-0.024,0.484v0.012c-1.144,6.616-6.392,6.758-8.102,6.687
									c0.307-0.283,0.578-0.731,0.602-1.427v-1.321c0.035-0.059,0.082-0.118,0.13-0.177L413.382,123.708z"/>
							</g>
							<g>
								<g>
									<path style="fill:#DD5B52;" d="M401.468,239.869c0,0,0.629,5.155,1.594,6.359c0.965,1.204-0.089,2.802-1.594,3.735
										c-1.506,0.933-13.249,12.932-14.303,10.094c-1.054-2.838,5.967-11.42,6.521-14.13c0.555-2.71,0.453-5.274,0.453-5.274
										L401.468,239.869z"/>
									<path style="fill:#DD5B52;" d="M415.169,242.227c0,0,1.054,2.194,0.753,4.904c-0.301,2.71-2.846,13.852,0.402,14.956
										c3.216,1.093,6.327-5.423,6.747-11.463c0.42-6.04,0.069-10.756,0.069-10.756L415.169,242.227z"/>
									<g>
										<g>
											<path style="fill:#895886;" d="M424.35,240.93c-0.767,0.731-1.592,1.238-2.43,1.58c-0.413,0.165-0.826,0.283-1.238,0.366
												c-3.491,0.767-6.864-0.943-6.864-0.943s-0.177-0.554-0.507-1.911c-0.071-0.283-0.153-0.613-0.236-0.979
												c-0.519-2.276-1.285-6.074-2.241-11.959c-1.805-11.251-3.585-33.648-3.585-33.648s-1.569,14.094-2.618,22.125
												c-0.696,5.331-1.274,14.436-1.569,19.955c-0.024,0.377-0.047,0.743-0.071,1.073c-0.118,2.205-0.177,3.621-0.177,3.621
												c-3.055,1.887-5.838,2.17-7.784,2.017c-0.33-0.024-0.637-0.059-0.908-0.106c-1.262-0.201-1.993-0.543-1.993-0.543
												s0-1.038,0.012-2.807c0.012-0.33,0.012-0.696,0.012-1.085c0.047-6.086,0.177-18.257,0.484-28.872
												c0.224-7.855,0.613-16.134,0.932-22.184c0.012-0.354,0.035-0.708,0.047-1.05c0.024-0.413,0.047-0.802,0.071-1.191
												c0.012-0.401,0.035-0.778,0.047-1.156c0.201-3.456,0.33-5.614,0.33-5.614c0.684-1.793,10.261-5.531,10.261-5.531
												l17.479,5.531c0,0,0.094,4.717,0.224,10.461c0.012,0.283,0.012,0.566,0.012,0.849c0.024,0.778,0.035,1.569,0.059,2.371
												c0,0.259,0.012,0.519,0.012,0.778c0.118,5.095,0.248,10.331,0.33,13.516c0.177,6.357,1.321,25.675,1.757,32.716
												c0.012,0.354,0.035,0.672,0.047,0.955C424.315,240.329,424.35,240.93,424.35,240.93z"/>
											<g>
												<path style="fill:#663350;" d="M422.039,188.931c-0.531-0.118-1.038-0.307-1.533-0.531
													c-1.073-0.484-2.052-1.167-2.878-1.993c-1.71-1.734-2.665-4.069-2.736-6.487c-0.012-0.46,0.696-0.543,0.731-0.071
													c0.177,2.276,1.168,4.482,2.807,6.074c0.778,0.755,1.675,1.344,2.654,1.793c0.307,0.13,0.625,0.26,0.944,0.366
													C422.039,188.365,422.039,188.648,422.039,188.931z"/>
												<path style="fill:#663350;" d="M422.522,239.751c-0.212,0.059-0.436,0.083-0.66,0.118
													c0.035,0.885,0.059,1.757,0.059,2.642c-0.413,0.165-0.826,0.283-1.238,0.366c-0.035-0.92-0.059-1.852-0.083-2.771
													c-0.885,0.13-1.781,0.224-2.677,0.248c-1.557,0.047-3.09-0.071-4.611-0.33c-0.071-0.283-0.153-0.613-0.236-0.979
													c1.675,0.318,3.397,0.448,5.107,0.377c0.802-0.035,1.604-0.118,2.394-0.236c-0.035-2.146-0.059-4.281-0.141-6.416
													c-0.543-14.695-1.828-29.367-3.715-43.956c-0.33-0.342-0.649-0.696-0.92-1.05c-1.757-2.312-2.665-5.13-2.618-8.032
													c0-0.507,0.79-0.519,0.79-0.012c0,2.807,0.955,5.626,2.76,7.796c0.106,0.13,0.236,0.236,0.342,0.354
													c0.177,0.012,0.366,0.13,0.401,0.354v0.071c0.637,0.637,1.321,1.238,2.076,1.722c0.814,0.519,1.686,0.885,2.548,1.286
													c0,0.259,0.012,0.519,0.012,0.778c-1.604-0.318-3.137-1.215-4.434-2.347c0.519,3.668,1.003,7.348,1.415,11.027
													c0.837,7.43,1.498,14.86,1.97,22.314c0.236,3.715,0.413,7.418,0.554,11.133c0.059,1.569,0.153,3.149,0.212,4.729
													c0.259-0.059,0.519-0.083,0.779-0.153c0.542-0.13,1.061-0.295,1.592-0.472c0.012,0.354,0.035,0.672,0.047,0.955
													C423.678,239.468,423.1,239.621,422.522,239.751z"/>
												<path style="fill:#663350;" d="M398.534,178.434c-0.413,1.545-1.168,2.925-2.276,4.081
													c-0.542,0.554-1.144,1.05-1.805,1.462c-0.248,0.153-0.507,0.295-0.767,0.413c0.012-0.401,0.035-0.778,0.047-1.156
													c0.047-0.012,0.083-0.047,0.13-0.071c0.59-0.354,1.132-0.79,1.628-1.274c1.038-1.038,1.805-2.3,2.264-3.691
													C397.897,177.75,398.652,177.998,398.534,178.434z"/>
												<path style="fill:#663350;" d="M400.197,178.422c-0.094,1.179-0.649,2.371-1.25,3.385
													c-0.637,1.085-1.439,2.064-2.394,2.889c-0.896,0.79-1.911,1.439-2.984,1.934c0.012-0.354,0.035-0.708,0.047-1.05
													c0.826-0.425,1.592-0.955,2.288-1.569c0.837-0.743,1.58-1.604,2.182-2.559c0.649-1.026,1.014-2.135,1.439-3.255
													C399.678,177.785,400.232,178.045,400.197,178.422z"/>
												<path style="fill:#663350;" d="M403.063,235.517c-0.024,0.377-0.047,0.743-0.071,1.073
													c-0.212,0.153-0.46,0.26-0.684,0.389c-0.554,0.318-1.132,0.59-1.722,0.837c-1.132,0.448-2.311,0.79-3.514,0.967
													c-0.661,0.106-1.333,0.165-2.005,0.189c-0.012,1.085-0.024,2.17-0.035,3.255c-0.33-0.024-0.637-0.059-0.908-0.106
													c0.012-1.05,0.024-2.099,0.035-3.149c-0.672-0.024-1.344-0.083-2.017-0.2c0.012-0.33,0.012-0.696,0.012-1.085
													c0.672,0.094,1.345,0.153,2.017,0.177c0.023-2.394,0.035-4.788,0.082-7.182c0.142-7.525,0.401-15.049,0.767-22.574
													c0.189-3.81,0.413-7.619,0.66-11.428c0.271-3.998,0.507-8.008,1.085-11.983c0.047-0.295,0.484-0.283,0.472,0.024
													c-0.083,4.293-0.46,8.562-0.731,12.855c-0.826,13.421-1.309,26.855-1.427,40.312c0.566-0.012,1.132-0.059,1.71-0.141
													c1.179-0.177,2.347-0.484,3.444-0.92c0.543-0.224,1.073-0.472,1.58-0.743
													C402.237,235.859,402.591,235.517,403.063,235.517z"/>
											</g>
										</g>
										<polygon style="fill:#663350;" points="393.948,179.581 421.857,180.332 421.799,177.615 394.462,176.118 										"/>
									</g>
								</g>
								<g>
									<g>
										<path style="fill:#FCC84F;" d="M403.693,133.505c0.597,0.136,4.024,3.563,9.971-0.652l5.356,44.882
											c0,0-22.988-0.476-23.122-0.701C395.764,176.808,403.693,133.505,403.693,133.505z"/>
										<g>
											<path style="fill:#E47262;" d="M424.353,133.505c0,0-11.017-2.84-11.142-2.622c-0.744,1.305-2.359,2.07-3.965,14.516
												c-1.606,12.446-1.757,36.887-1.757,36.887l16.863-2.911l-1.093-30.563C423.828,147.969,420.439,137.721,424.353,133.505z
												"/>
											<path style="fill:#DD5B52;" d="M415.922,131.397l-1.405,7.679c0,0-2.76-0.452-4.366,0.652c0,0,0.452-6.574,3.664-9.536
												C413.814,130.193,415.721,130.093,415.922,131.397z"/>
										</g>
										<g>
											<path style="fill:#E47262;" d="M403.68,131.397c0,0-0.104,25.495-0.004,32.722c0.1,7.227-1.305,18.168-1.305,18.168
												l-9.254-3.334c0,0,2.276-17.164,2.63-27.503c0.354-10.339,0.527-15.209,0.527-15.209L403.68,131.397z"/>
											<path style="fill:#DD5B52;" d="M403.693,141.184c0,0-0.217-2.208-1.974-1.757c-1.757,0.452-1.706,0.627-1.706,0.627
												s1.982-7.754,2.848-8.356c0.866-0.602,1.87-0.827,1.87-0.827S403.747,135.964,403.693,141.184z"/>
										</g>
									</g>
									<g>
										<path style="fill:#F4AB9A;" d="M391.456,158.905c0,0,2.284,2.233,8.858,2.484c6.574,0.251,11.813-0.478,11.813-0.478
											l2.139-0.124c0,0-1.405-3.413-1.556-3.513c-0.151-0.1-15.495-2.923-15.495-2.923S391.983,154.35,391.456,158.905z"/>
										<g>
											<g>
												<path style="fill:#DD5B52;" d="M396.274,136.24c0,0,0.318,0.714,0.61,7.025c0.149,3.224-0.364,10.031-0.61,10.967
													c0,0-4.818,0.426-4.818,0.2C391.456,154.207,395.759,135.638,396.274,136.24z"/>
												<path style="fill:#EF8378;" d="M391.394,153.786c0,0-0.852,0.753-0.993,2.559c-0.142,1.807,1.055,2.56,1.055,2.56
													s3.134-4.479,5.759-4.555c0,0-0.415-0.833-1.566-0.788C395.649,153.563,392.34,153.284,391.394,153.786z"/>
											</g>
											<g>
												<path style="fill:#DD5B52;" d="M424.353,133.505c0,0-3.968,2.718-6.178,8.359c-1.163,2.969-3.784,12.181-3.784,12.181
													l7.528,6.625C421.919,160.67,430.053,142.327,424.353,133.505z"/>
												<path style="fill:#FABCAB;" d="M412.698,154.462c0,0-4.615-0.76-8.164-0.887c-2.551-0.091-6.272,0.353-6.479,0.753
													c-0.564,1.088,20.093,7.902,20.093,7.902S414.279,154.914,412.698,154.462z"/>
												<path style="fill:#EF8378;" d="M413.036,154.195c0,0,0.691-1.24,1.519-0.788c0.828,0.452,7.445,6.889,7.445,6.889
													s-0.477,2.055-2.716,2.481C416.209,163.363,413.036,154.195,413.036,154.195z"/>
											</g>
										</g>
									</g>
								</g>
							</g>
							<g>
								<g>
									<path style="fill:#96507E;" d="M419.138,117.964c0.118,0.814-4.01,3.585-4.269,3.809l-16.181-4.305l-0.236-2.996
										c0,0-2.064,0.731-3.019,0.153c-0.967-0.578,1.545-3.408,1.545-3.408s-0.012,0-0.023,0.012
										c-0.307,0.083-2.795,0.731-0.684-3.161c2.253-4.14,7.89-4.199,7.89-4.199s-2.099-1.521,0.413-1.828
										c2.347-0.295,6.404,2.878,6.876,3.267c0.024,0.012,0.035,0.024,0.047,0.035c0,0,0.083-0.684,0-1.687
										c-0.071-0.991,5.697,4.364,6.522,6.451c0.826,2.099-1.356,5.614-1.356,5.614s1.238-0.519,1.71,0
										c0.472,0.531-1.368,2.241-1.368,2.241S419.02,117.138,419.138,117.964z"/>
									<path style="fill:#BF6A9A;" d="M406.2,104.837c0,0-6.156,0.342-8.904,2.878c-2.748,2.536-0.319,3.503-0.319,3.503
										s-0.012,0-0.023,0.012c-0.307,0.083-2.795,0.731-0.684-3.161c2.253-4.14,7.89-4.199,7.89-4.199s-2.099-1.521,0.413-1.828
										c2.347-0.295,6.404,2.878,6.876,3.267c0.024,0.012,0.035,0.024,0.047,0.035c-0.224-0.094-2.937-1.663-5.083-2.394
										C404.089,102.16,406.2,104.837,406.2,104.837z"/>
									<ellipse style="fill:#FABCAB;" cx="406.196" cy="119.806" rx="7.75" ry="10.385"/>
									<path style="fill:#7F4965;" d="M407.946,119.404c0,0.49-0.16,0.886-0.358,0.886c-0.198,0-0.358-0.397-0.358-0.886
										s0.16-0.886,0.358-0.886C407.786,118.517,407.946,118.914,407.946,119.404z"/>
									<path style="fill:#7F4965;" d="M401.664,119.506c0,0.49-0.16,0.886-0.358,0.886c-0.198,0-0.358-0.397-0.358-0.886
										c0-0.489,0.16-0.886,0.358-0.886C401.503,118.62,401.664,119.017,401.664,119.506z"/>
									<g>
										<path style="fill:#7F4965;" d="M407.781,116.561c-0.696,0.235-1.329,0.539-1.941,0.946
											c-0.156,0.104-0.022,0.33,0.146,0.25c0.618-0.295,1.265-0.544,1.922-0.736
											C408.203,116.935,408.072,116.463,407.781,116.561z"/>
										<path style="fill:#7F4965;" d="M402.211,117.599c-0.483-0.339-1.021-0.614-1.517-0.936
											c-0.165-0.107-0.366,0.145-0.213,0.276c0.47,0.402,0.995,0.804,1.571,1.038
											C402.283,118.071,402.39,117.724,402.211,117.599z"/>
										<path style="fill:#7F4965;" d="M408.136,123.466c-0.673,1.024-2.335,2.247-3.618,2.214
											c-0.198-0.005-0.251,0.318-0.048,0.353c1.509,0.259,3.32-1.112,4.111-2.307
											C408.765,123.449,408.318,123.189,408.136,123.466z"/>
									</g>
									<g>
										<path style="fill:#F37E84;" d="M413.299,121.6c0,0-2.289-7.363-8.569-7.245c-6.279,0.118-5.996,2.645-5.996,2.645
											s0.104-4.179,4.261-4.024C407.152,113.131,413.414,115.694,413.299,121.6z"/>
										<path style="fill:#FCC84F;" d="M413.568,123.016c-0.063,0.276-0.746-7.818-7.206-9.144c-7.263-1.49-7.619,2.97-7.556,2.8
											c0.063-0.17-0.36-7.253,7.172-7.253C411.305,109.421,415.44,114.787,413.568,123.016z"/>
										<g>
											<g>
												<path style="fill:#F3A61D;" d="M409.218,111.221c0.393,0.975,1.387,1.647,2.444,1.621c0.189-0.005,0.19-0.299,0-0.295
													c-0.915,0.022-1.815-0.551-2.16-1.405C409.432,110.969,409.147,111.045,409.218,111.221L409.218,111.221z"/>
											</g>
											<g>
												<path style="fill:#F3A61D;" d="M408.432,110.184c-0.017,0.909,0.385,1.821,1.095,2.396
													c0.725,0.587,1.697,0.801,2.604,0.59c0.185-0.043,0.107-0.327-0.078-0.284c-0.816,0.19-1.713-0.007-2.359-0.549
													c-0.63-0.528-0.983-1.334-0.967-2.152C408.73,109.994,408.435,109.994,408.432,110.184L408.432,110.184z"/>
											</g>
											<g>
												<path style="fill:#F3A61D;" d="M408.931,114.815c0.877-0.334,1.878-0.13,2.641,0.389
													c0.67,0.455,1.217,1.431,0.623,2.172c-0.118,0.147,0.09,0.357,0.208,0.208c0.662-0.826,0.239-1.927-0.52-2.516
													c-0.835-0.648-2.027-0.92-3.031-0.537C408.677,114.598,408.753,114.883,408.931,114.815L408.931,114.815z"/>
											</g>
											<g>
												<path style="fill:#F3A61D;" d="M409.613,115.476c0.472-0.127,1.005-0.013,1.371,0.316
													c0.364,0.327,0.55,0.841,0.473,1.325c-0.013,0.079,0.02,0.158,0.103,0.181c0.07,0.02,0.169-0.024,0.181-0.103
													c0.094-0.587-0.102-1.21-0.548-1.612c-0.445-0.4-1.081-0.547-1.658-0.392
													C409.351,115.241,409.429,115.525,409.613,115.476L409.613,115.476z"/>
											</g>
											<g>
												<path style="fill:#F3A61D;" d="M412.063,114.014c-0.06,0.002-0.114,0.031-0.145,0.084
													c-0.034,0.058-0.03,0.131,0.011,0.184c0.013,0.017,0.013,0.017,0.03,0.03c0.017,0.013,0.017,0.013,0.037,0.021
													c0.022,0.009,0.044,0.014,0.068,0.014c0.03,0,0.058-0.008,0.084-0.024c0.022-0.013,0.05-0.038,0.06-0.062
													c0.011-0.017,0.017-0.035,0.018-0.055c0.004-0.02,0.003-0.039-0.003-0.059c-0.009-0.034-0.036-0.071-0.068-0.088
													c-0.034-0.018-0.076-0.027-0.114-0.015c-0.012,0.005-0.023,0.01-0.035,0.015c-0.022,0.013-0.04,0.031-0.053,0.053
													c-0.001,0.002-0.001,0.003-0.002,0.005c0.008-0.01,0.015-0.02,0.023-0.03c-0.001,0.001-0.002,0.003-0.004,0.004
													c0.01-0.008,0.02-0.015,0.03-0.023c-0.001,0.001-0.003,0.002-0.005,0.003c0.012-0.005,0.023-0.01,0.035-0.015
													c-0.002,0.001-0.003,0.001-0.005,0.001c0.013-0.002,0.026-0.003,0.039-0.005c-0.003,0-0.005,0-0.008,0
													c0.013,0.002,0.026,0.004,0.039,0.005c-0.002,0-0.003-0.001-0.005-0.001c0.012,0.005,0.023,0.01,0.035,0.015
													c-0.001-0.001-0.003-0.001-0.004-0.002c0.01,0.008,0.02,0.015,0.03,0.023c-0.001-0.001-0.003-0.002-0.004-0.004
													c0.008,0.01,0.015,0.02,0.023,0.03c0-0.001-0.001-0.002-0.001-0.002c0.005,0.012,0.01,0.023,0.015,0.035
													c-0.001-0.002-0.001-0.003-0.001-0.005c0.002,0.013,0.004,0.026,0.005,0.039c0-0.002,0-0.004,0-0.005
													c-0.002,0.013-0.003,0.026-0.005,0.039c0-0.002,0.001-0.004,0.001-0.005c-0.005,0.012-0.01,0.023-0.015,0.035
													c0.001-0.002,0.002-0.003,0.003-0.005c-0.008,0.01-0.015,0.02-0.023,0.03c0.001-0.001,0.002-0.003,0.004-0.004
													c-0.01,0.008-0.02,0.015-0.03,0.023c0.001-0.001,0.003-0.002,0.005-0.003c-0.012,0.005-0.023,0.01-0.035,0.015
													c0.002-0.001,0.003-0.001,0.005-0.001c-0.013,0.002-0.026,0.004-0.039,0.005c0,0,0.002,0,0.003,0
													c0.039-0.001,0.077-0.015,0.104-0.043c0.026-0.026,0.045-0.068,0.043-0.104c-0.002-0.038-0.014-0.078-0.043-0.104
													C412.139,114.031,412.103,114.013,412.063,114.014L412.063,114.014z"/>
											</g>
											<g>
												<path style="fill:#F3A61D;" d="M413.574,117.502c-0.507,0.113-0.751,0.623-0.776,1.102
													c-0.019,0.377,0.087,1.256,0.655,1.124c0.185-0.043,0.106-0.327-0.078-0.284c-0.149,0.035-0.207-0.237-0.232-0.332
													c-0.048-0.188-0.063-0.382-0.045-0.575c0.031-0.331,0.207-0.672,0.554-0.75
													C413.838,117.745,413.76,117.461,413.574,117.502L413.574,117.502z"/>
											</g>
											<g>
												<path style="fill:#F3A61D;" d="M413.622,117.968c-0.192,0.111-0.316,0.318-0.323,0.54
													c-0.007,0.226,0.118,0.442,0.308,0.561c0.065,0.041,0.165,0.016,0.202-0.053c0.038-0.073,0.017-0.158-0.053-0.202
													c-0.009-0.006-0.017-0.012-0.026-0.018c-0.018-0.011,0.015,0.014,0,0c-0.014-0.013-0.028-0.025-0.042-0.039
													c-0.007-0.008-0.014-0.016-0.021-0.024c-0.014-0.016,0.011,0.018,0-0.001c-0.01-0.017-0.021-0.032-0.03-0.049
													c-0.005-0.009-0.009-0.019-0.014-0.029c-0.01-0.019,0.006,0.02,0,0c-0.006-0.018-0.013-0.036-0.017-0.055
													c-0.003-0.01-0.004-0.021-0.007-0.031c-0.006-0.021,0.002,0.034-0.001-0.005c-0.001-0.019-0.002-0.038-0.002-0.057
													c0-0.008,0.001-0.017,0.001-0.025c0-0.022-0.007,0.033,0-0.004c0.004-0.018,0.008-0.036,0.013-0.054
													c0.002-0.008,0.005-0.016,0.008-0.024c0.005-0.013,0.011-0.024,0.001-0.005c0.008-0.017,0.017-0.033,0.026-0.049
													c0.004-0.007,0.009-0.014,0.013-0.021c0.007-0.011,0.016-0.022,0.003-0.005c0.012-0.015,0.024-0.029,0.037-0.042
													c0.006-0.006,0.012-0.012,0.018-0.017c0.01-0.009,0.02-0.017,0.004-0.005c0.016-0.013,0.034-0.024,0.052-0.034
													c0.067-0.039,0.096-0.135,0.053-0.202C413.781,117.953,413.694,117.926,413.622,117.968L413.622,117.968z"/>
											</g>
											<g>
												<path style="fill:#F3A61D;" d="M408.323,112.816c-0.013,0.019-0.025,0.038-0.038,0.056
													c-0.011,0.017-0.017,0.035-0.018,0.055c-0.004,0.02-0.003,0.039,0.003,0.059c0.009,0.034,0.036,0.071,0.068,0.088
													c0.034,0.018,0.076,0.027,0.114,0.015c0.038-0.012,0.066-0.035,0.088-0.068c0.012-0.019,0.025-0.038,0.038-0.057
													c0.011-0.017,0.017-0.035,0.018-0.055c0.004-0.02,0.004-0.039-0.003-0.059c-0.009-0.034-0.036-0.071-0.068-0.088
													c-0.034-0.018-0.076-0.027-0.114-0.015C408.373,112.76,408.345,112.783,408.323,112.816L408.323,112.816z"/>
											</g>
											<g>
												<path style="fill:#F3A61D;" d="M407.748,114.113c0.062-0.608,0.119-1.243-0.118-1.823
													c-0.2-0.489-0.579-0.827-1.081-0.987c-0.53-0.168-1.153-0.194-1.701-0.12c-0.501,0.068-0.955,0.287-1.256,0.701
													c-0.316,0.436-0.419,1.008-0.261,1.524c0.055,0.181,0.34,0.104,0.284-0.078c-0.154-0.504-0.015-1.064,0.356-1.44
													c0.446-0.452,1.131-0.468,1.724-0.431c0.602,0.037,1.238,0.178,1.564,0.739c0.336,0.578,0.259,1.28,0.194,1.915
													C407.434,114.302,407.729,114.3,407.748,114.113L407.748,114.113z"/>
											</g>
											<g>
												<path style="fill:#F3A61D;" d="M404.474,113.532c0.048-0.301,0.117-0.622,0.305-0.87
													c0.177-0.235,0.454-0.345,0.745-0.309c0.649,0.081,0.955,0.768,0.841,1.359c-0.036,0.185,0.248,0.265,0.284,0.078
													c0.111-0.578-0.071-1.235-0.595-1.556c-0.512-0.314-1.175-0.209-1.531,0.28c-0.198,0.272-0.282,0.614-0.334,0.941
													C404.16,113.64,404.444,113.72,404.474,113.532L404.474,113.532z"/>
											</g>
											<g>
												<path style="fill:#F3A61D;" d="M407.441,109.657c-1.01,0.856-2.46,0.938-3.571,0.227
													c-0.16-0.103-0.308,0.152-0.149,0.255c1.228,0.787,2.82,0.667,3.928-0.273
													C407.795,109.743,407.585,109.535,407.441,109.657L407.441,109.657z"/>
											</g>
											<g>
												<path style="fill:#F3A61D;" d="M405.068,109.884c0.405,0.211,0.886,0.216,1.296,0.018
													c0.072-0.035,0.091-0.137,0.053-0.202c-0.043-0.073-0.13-0.088-0.202-0.053c-0.312,0.15-0.692,0.142-0.999-0.018
													c-0.071-0.037-0.16-0.018-0.202,0.053C404.977,109.749,404.998,109.847,405.068,109.884L405.068,109.884z"/>
											</g>
											<g>
												<path style="fill:#F3A61D;" d="M403.255,111.013c-0.013-0.006-0.025-0.013-0.038-0.019
													c-0.036-0.018-0.074-0.026-0.114-0.015c-0.034,0.01-0.071,0.036-0.088,0.068c-0.018,0.034-0.027,0.076-0.015,0.114
													c0.011,0.035,0.034,0.071,0.068,0.088c0.013,0.006,0.025,0.013,0.038,0.019c0.036,0.018,0.074,0.026,0.114,0.015
													c0.034-0.009,0.071-0.036,0.088-0.068c0.018-0.034,0.027-0.076,0.015-0.114
													C403.311,111.065,403.289,111.03,403.255,111.013L403.255,111.013z"/>
											</g>
											<g>
												<path style="fill:#F3A61D;" d="M407.641,111.099c0.19,0,0.19-0.295,0-0.295
													C407.451,110.804,407.451,111.099,407.641,111.099L407.641,111.099z"/>
											</g>
											<g>
												<path style="fill:#F3A61D;" d="M401.293,111.181c0.224,0.571,0.161,1.229-0.195,1.734
													c-0.328,0.467-0.889,0.748-1.456,0.758c-0.19,0.003-0.19,0.298,0,0.295c0.663-0.011,1.296-0.335,1.687-0.871
													c0.414-0.566,0.502-1.344,0.248-1.994C401.509,110.928,401.224,111.004,401.293,111.181L401.293,111.181z"/>
											</g>
											<g>
												<path style="fill:#F3A61D;" d="M400.552,111.667c0.001,0.56-0.303,1.098-0.784,1.385
													c-0.163,0.097-0.015,0.352,0.149,0.255c0.569-0.34,0.931-0.977,0.93-1.64
													C400.846,111.477,400.552,111.477,400.552,111.667L400.552,111.667z"/>
											</g>
											<g>
												<path style="fill:#F3A61D;" d="M402.183,113.094c0.19,0,0.19-0.295,0-0.295
													C401.993,112.799,401.993,113.094,402.183,113.094L402.183,113.094z"/>
											</g>
										</g>
									</g>
									<path style="fill:#FABCAB;" d="M417.266,122.423c0,1.193-0.967,2.161-2.161,2.161c-1.193,0-2.161-0.967-2.161-2.161
										c0-1.193,0.967-2.161,2.161-2.161C416.298,120.262,417.266,121.23,417.266,122.423z"/>
								</g>
								<g>
									<path style="fill:#7F4965;" d="M404.133,123.651c-0.253-0.167-0.61-0.077-0.9-0.113c-0.216-0.027-0.426-0.096-0.584-0.252
										c-0.441-0.436,0.129-0.919,0.386-1.283c0.56-0.797,0.954-1.852,0.887-2.836c-0.016-0.238-0.365-0.189-0.396,0.022
										c-0.086,0.593-0.2,1.173-0.455,1.72c-0.127,0.272-0.28,0.538-0.453,0.783c-0.163,0.229-0.361,0.433-0.506,0.675
										c-0.289,0.482-0.186,1.049,0.233,1.417c0.239,0.21,0.538,0.326,0.85,0.373c0.294,0.044,0.72,0.077,0.96-0.121
										C404.274,123.938,404.263,123.736,404.133,123.651z"/>
								</g>
								<path style="fill:#DD5B52;" d="M414.167,108.27c-0.38,0.101-0.531,0.558-0.27,0.852c0.732,0.824,1.981,2.04,2.705,1.693
									c1.07-0.513,1.805-1.891,2.543-4.964C420.022,102.204,418.03,107.241,414.167,108.27z"/>
								<path style="fill:#DD5B52;" d="M398.102,105.926c0,0-1.094-2.861-0.528-2.557c0.566,0.305,2.042,1.619,2.01,1.635
									C399.554,105.021,398.102,105.926,398.102,105.926z"/>
							</g>
						</g>
					</g>
				</g>
			</g>
			<path style="fill:#96507E;" d="M439.903,282.593c-2.479-1.756-5.557-2.194-8.494-2.601c-10.86-1.507-23.665,0.394-29.328,10.727
				c-0.758-0.146-1.514-0.294-2.27-0.447c-2.847-0.574-5.702-1.146-8.528-1.818c-2.741-0.651-5.619-1.504-7.838-3.321
				c-1.926-1.577-3.582-4.058-3.204-6.66c0.362-2.488,2.561-4.588,5.133-4.282c1.134,0.135,1.414-1.851,0.272-2.01
				c-5.306-0.739-8.772,4.887-7.289,9.625c1.711,5.465,7.257,7.831,12.381,9.029c3.365,0.788,6.78,1.544,10.225,2.22
				c-1.914,5.087-1.004,10.56,2.489,14.833c4.316,5.28,11.628,8.083,18.291,8.262c0.922,0.025,1.15-1.182,0.329-1.55
				c-4.901-2.199-10.432-3.1-14.529-6.826c-3.37-3.065-5.235-7.421-4.017-11.953c0.204-0.757,0.472-1.462,0.769-2.144
				c8.565,1.524,17.278,2.431,25.861,1.87c4.458-0.291,12.082-0.557,12.884-6.349C443.399,286.608,441.979,284.063,439.903,282.593z
				 M438.649,291.308c-1.856,1.094-4.22,1.263-6.311,1.498c-8.966,1.006-17.946,0.1-26.793-1.45
				c3.94-5.898,11.687-8.273,18.754-8.358c2.666-0.032,5.332,0.193,7.977,0.513c2.291,0.277,4.951,0.611,6.662,2.327
				C440.626,287.53,440.859,290.005,438.649,291.308z"/>
		</g>
		<g>
			<path style="fill:#96507E;" d="M96.211,290.235c-5.068-2.402-11.076-4.032-16.715-3.649c-1.514,0.103-1.326,2.462,0.111,2.598
				c4.455,0.423,8.718,0.997,12.918,2.64c2.062,0.807,4.054,1.795,5.955,2.929c1.682,1.004,3.427,2.136,4.609,3.73
				c5.642,7.61-11.869,9.894-15.79,10.446c-2.53,0.356-5.077,0.57-7.629,0.67c-0.258-1.117-0.652-2.184-1.125-3.097
				c-2.113-4.078-6-6.354-10.347-7.444c-2.397-0.601-4.867-0.827-7.331-0.931c-2.126-0.09-4.361-0.258-6.472,0.094
				c-2.047,0.341-4.053,1.367-4.815,3.413c-0.785,2.105,0.116,4.512,1.717,5.977c1.939,1.775,4.606,2.321,7.09,2.884
				c2.751,0.623,5.534,1.098,8.336,1.414c3.466,0.391,6.956,0.538,10.442,0.481c-0.06,1.548-0.578,2.981-1.265,4.413
				c-0.409,0.852,0.602,1.606,1.349,1.134c1.988-1.255,2.73-3.391,2.736-5.634c1.099-0.057,2.197-0.12,3.293-0.224
				c5.195-0.494,10.425-1.39,15.406-2.98c3.639-1.162,8.005-3.651,8.033-7.995C106.754,295.701,100.414,292.226,96.211,290.235z
				 M59.637,307.795c-1.961-0.437-4.286-0.819-5.929-2.056c-1.191-0.897-2.141-2.872-0.634-3.947c1.243-0.887,3.1-0.818,4.552-0.805
				c2.033,0.019,4.069,0.063,6.093,0.264c4.139,0.411,8.723,1.551,11.353,5.039c0.763,1.012,1.353,2.162,1.717,3.379
				C71.026,309.679,65.262,309.049,59.637,307.795z"/>
			<g>
				<g>
					<g>
						<path style="fill:#FEFEFE;" d="M150.587,160.447c-0.536-0.191-1.023,0.112-1.247,0.591c-1.004,2.153-2.564,4.018-4.395,5.517
							c-0.862,0.706-1.786,1.306-2.768,1.828c-1.097,0.583-2.287,0.952-3.368,1.547c-0.748,0.411-0.421,1.579,0.417,1.585
							c1.419,0.009,2.919-0.613,4.157-1.282c1.169-0.632,2.274-1.369,3.278-2.241c1.975-1.714,3.499-3.897,4.518-6.299
							C151.384,161.209,151.063,160.617,150.587,160.447z"/>
						<path style="fill:#FEFEFE;" d="M155.412,164.928c-0.549-0.421-1.293-0.368-1.757,0.154c-1.089,1.222-2.177,2.445-3.265,3.668
							c-0.659,0.741-1.286,1.507-1.93,2.261c-0.253,0.297-0.507,0.592-0.76,0.89c-0.399,0.469-0.686,0.873-0.969,1.433
							c-0.43,0.853,0.613,1.595,1.35,1.134c0.312-0.195,0.586-0.369,0.842-0.635c0.152-0.157,0.3-0.316,0.45-0.475
							c0.308-0.325,0.622-0.645,0.933-0.968c0.617-0.64,1.234-1.279,1.832-1.937c1.143-1.256,2.285-2.511,3.427-3.768
							C156.005,166.202,155.932,165.327,155.412,164.928z"/>
					</g>
					<g>
						<path style="fill:#FEFEFE;" d="M49.44,176.526c-1.011-0.452-2.04-0.845-3.013-1.381c-0.934-0.514-1.848-1.1-2.693-1.751
							c-1.604-1.237-2.992-2.778-4.028-4.521c-0.218-0.366-0.612-0.58-1.034-0.399c-0.355,0.152-0.613,0.67-0.399,1.034
							c1.191,2.024,2.735,3.796,4.599,5.23c1.757,1.353,3.978,2.545,6.21,2.805C49.654,177.61,50.043,176.796,49.44,176.526z"/>
						<path style="fill:#FEFEFE;" d="M41.401,176.431c-4.085-1.176-7.831-3.533-9.617-7.528c-0.486-1.087-2.211-0.403-1.722,0.691
							c1.903,4.257,6.219,7.984,11.053,8.008C41.743,177.605,42.12,176.638,41.401,176.431z"/>
					</g>
				</g>
				<g>
					<g>
						<g>
							<path style="fill:#FEFEFE;" d="M88.698,142.792c0,0-3.087,3.864-10.69-1.953c-7.603-5.817-14.632-20.895-20.863-17.571
								c-4.999,2.666-5.716,7.174-14.553,15.873c-5.849,5.758-15.834,9.788-15.261,11.131c0.572,1.343,10.509-0.064,14.875-2.874
								c0,0-8.797,4.744-5.908,5.415c2.889,0.671,9.099-1.593,11.113-3.146c0,0-6.882,7.376-4.196,7.359
								c2.686-0.016,9.399-5.458,9.399-5.458s-6.546,6.654-4.364,7.055c2.182,0.401,8.56-3.46,10.406-6.313
								c0,0-4.028,5.912-1.846,6.313c2.182,0.401,7.385-2.788,8.896-5.306c0,0-4.364,4.679-2.014,5.361
								c2.35,0.682,7.889-3.346,9.064-5.528c0,0-3.86,5.073-1.678,5.474s6.882-2.788,8.224-5.306c0,0-3.375,4.664-1.184,5.437
								C80.308,159.528,88.698,142.792,88.698,142.792z"/>
							<path style="fill:#F0E4F2;" d="M87.549,147.399c0,0-6.266,1.381-13.254-5.179c-6.988-6.56-12.407-17.549-15.688-15.763
								c-3.28,1.786-8.054,10.123-11.619,13.673c0,0,8.151-7.734,10.932-10.815c2.099-2.325,9.672,10.077,15.662,14.129
								C79.571,147.496,85.115,148.585,87.549,147.399z"/>
						</g>
						<g>
							<path style="fill:#FEFEFE;" d="M94.347,142.792c0,0,2.488,3.864,8.615-1.953c6.128-5.817,11.792-20.895,16.814-17.571
								c4.029,2.666,4.607,7.174,11.729,15.873c4.714,5.758,12.761,9.788,12.3,11.131c-0.461,1.343-8.47-0.064-11.988-2.874
								c0,0,7.09,4.744,4.762,5.415c-2.328,0.671-7.333-1.593-8.956-3.146c0,0,5.546,7.376,3.382,7.359
								c-2.164-0.016-7.575-5.458-7.575-5.458s5.276,6.654,3.517,7.055c-1.759,0.401-6.899-3.46-8.387-6.313
								c0,0,3.246,5.912,1.488,6.313c-1.759,0.401-5.952-2.788-7.17-5.306c0,0,3.517,4.679,1.623,5.361
								c-1.894,0.682-6.358-3.346-7.305-5.528c0,0,3.111,5.073,1.353,5.474c-1.758,0.401-5.546-2.788-6.628-5.306
								c0,0,2.72,4.664,0.954,5.437C101.109,159.528,94.347,142.792,94.347,142.792z"/>
							<path style="fill:#F0E4F2;" d="M95.273,147.399c0,0,5.05,1.381,10.682-5.179c5.632-6.56,10-17.549,12.643-15.763
								c2.644,1.786,6.491,10.123,9.364,13.673c0,0-6.569-7.734-8.81-10.815c-1.692-2.325-7.795,10.077-12.623,14.129
								C101.702,147.496,97.234,148.585,95.273,147.399z"/>
						</g>
					</g>
					<g>
						<g>
							<path style="fill:#FEFEFE;" d="M89.756,255.74l-0.8-0.537l-5.444-6.637l-1.935,1.683c0,0-5.169-0.521-5.425,1.782
								c-0.256,2.303,2.66,5.077,3.489,6.944c0.829,1.866,3.775,9.775,7.25,9.551c3.475-0.224-0.44-8.537-0.343-9.869
								C86.644,257.326,89.756,255.74,89.756,255.74z"/>
							<path style="fill:#6F4675;" d="M104.865,186.44c0,0,9.766,31.004,8.982,37.794c-0.784,6.79-24.916,33.619-24.916,33.619
								l-7.836-8.169c0,0,17.784-19.66,16.158-24.635c-1.626-4.975-5.638-27.068-5.638-27.068L104.865,186.44z"/>
							<g>
								<path style="fill:#663350;" d="M89.902,256.283c-0.132,0-0.263-0.052-0.361-0.154l-6.957-7.283
									c-0.19-0.2-0.183-0.517,0.017-0.707c0.199-0.191,0.516-0.184,0.706,0.016l6.957,7.283c0.191,0.2,0.184,0.517-0.016,0.707
									C90.151,256.237,90.026,256.283,89.902,256.283z"/>
							</g>
						</g>
						<g>
							<path style="fill:#FEFEFE;" d="M60.713,226.437c0,0-5.504-3.44-6.995-1.147c-1.491,2.293,0.115,6.765,0,9.173
								c-0.115,2.408-2.293,13.531,1.491,15.136c3.784,1.605,5.155-10.458,5.963-11.811c0.808-1.353,4.931-1.376,4.931-1.376
								L60.713,226.437z"/>
							<g>
								<path style="fill:#895886;" d="M77.927,186.44c-2.171,5.621,8.313,30.19,8.564,33.375
									c0.236,2.985-25.645,5.534-25.645,5.534l2.229,12.122c0,0,35.541-0.35,37.229-10.936
									c1.687-10.586-4.264-27.651-4.264-27.651s10.495-8.116,8.824-12.445C103.194,182.111,77.927,186.44,77.927,186.44z"/>
								<g>
									<path style="fill:#663350;" d="M63.044,228.208c-0.247,0-0.462-0.183-0.495-0.435c-0.036-0.274,0.156-0.525,0.43-0.561
										c17.16-2.263,25.563-4.21,26.406-5.17c-0.154-0.651-1.243-3.426-2.391-6.355c-4.788-12.209-9.382-24.39-8.426-27.502
										c0.081-0.263,0.361-0.413,0.625-0.331c0.264,0.081,0.412,0.361,0.331,0.625c-0.934,3.039,5.139,18.524,8.401,26.843
										c2.396,6.109,2.554,6.611,2.454,6.962c-0.17,0.598-0.689,2.416-27.27,5.92C63.088,228.207,63.066,228.208,63.044,228.208z"
										/>
								</g>
								<g>
									<path style="fill:#663350;" d="M64.835,236.654c-0.236,0-0.446-0.168-0.491-0.409l-1.791-9.639
										c-0.05-0.271,0.129-0.532,0.4-0.583c0.27-0.051,0.532,0.129,0.583,0.4l1.791,9.639c0.05,0.271-0.129,0.532-0.4,0.583
										C64.896,236.652,64.865,236.654,64.835,236.654z"/>
								</g>
								<g>
									<path style="fill:#663350;" d="M80.393,196.618c-0.256,0-0.475-0.196-0.498-0.457c-0.024-0.275,0.179-0.518,0.455-0.541
										c1.082-0.095,1.898-0.53,2.494-1.331c1.837-2.47,0.833-7.438,0.822-7.487c-0.056-0.271,0.118-0.535,0.388-0.591
										c0.269-0.054,0.534,0.117,0.591,0.388c0.046,0.222,1.103,5.461-0.999,8.287c-0.765,1.029-1.845,1.611-3.209,1.73
										C80.423,196.617,80.408,196.618,80.393,196.618z"/>
								</g>
							</g>
						</g>
					</g>
					<g>
						<g>
							<g>
								<path style="fill:#FABCAB;" d="M86.667,141.463l1.227,5.354c0,0,4.942,1.38,5.555,1.227
									c0.602-0.153,3.986-1.439,4.281-1.887c0.307-0.448-1.109-4.163-1.109-4.163s-0.507-0.094-0.943-0.507
									c-0.307-0.283-0.578-0.731-0.602-1.427v-1.427l-0.13-0.071l-7.395-4.258l0.024,0.484v0.012l0.318,5.991L86.667,141.463z"/>
								<path style="fill:#F37E84;" d="M87.552,134.304l0.024,0.484v0.012c1.144,6.616,6.392,6.758,8.102,6.687
									c-0.307-0.283-0.578-0.731-0.602-1.427v-1.321c-0.035-0.059-0.083-0.118-0.13-0.177L87.552,134.304z"/>
							</g>
							<g>
								<g>
									<path style="fill:#96507E;" d="M81.796,128.561c-0.118,0.814,4.01,3.585,4.269,3.809l16.181-4.305l0.236-2.996
										c0,0,2.064,0.731,3.019,0.153c0.967-0.578-1.545-3.408-1.545-3.408s0.012,0,0.023,0.012
										c0.307,0.082,2.795,0.731,0.684-3.161c-2.253-4.14-7.89-4.199-7.89-4.199s2.099-1.521-0.413-1.828
										c-2.347-0.295-6.404,2.878-6.876,3.267c-0.024,0.012-0.035,0.024-0.047,0.035c0,0-0.083-0.684,0-1.687
										c0.071-0.991-5.697,4.364-6.522,6.451c-0.826,2.099,1.356,5.614,1.356,5.614s-1.238-0.519-1.71,0
										c-0.472,0.531,1.368,2.241,1.368,2.241S81.914,127.735,81.796,128.561z"/>
									<path style="fill:#BF6A9A;" d="M94.734,115.434c0,0,6.156,0.342,8.904,2.878c2.748,2.536,0.319,3.503,0.319,3.503
										s0.012,0,0.023,0.012c0.307,0.082,2.795,0.731,0.684-3.161c-2.253-4.14-7.89-4.199-7.89-4.199s2.099-1.521-0.413-1.828
										c-2.347-0.295-6.404,2.878-6.876,3.267c-0.024,0.012-0.035,0.024-0.047,0.035c0.224-0.094,2.937-1.663,5.083-2.394
										C96.845,112.757,94.734,115.434,94.734,115.434z"/>
									<ellipse style="fill:#FABCAB;" cx="94.739" cy="130.402" rx="7.75" ry="10.385"/>
									<path style="fill:#7F4965;" d="M97.601,136.048c-1.007,1.033-2.334,0.765-3.274-0.177
										c-0.154-0.154-0.409,0.043-0.301,0.232c0.824,1.443,2.794,1.337,3.784,0.155C97.932,136.113,97.737,135.908,97.601,136.048
										z"/>
									<g>
										<path style="fill:#F37E84;" d="M87.635,132.197c0,0,2.289-7.363,8.569-7.245c6.279,0.118,5.996,2.645,5.996,2.645
											s-0.104-4.179-4.261-4.024C93.782,123.727,87.52,126.291,87.635,132.197z"/>
										<path style="fill:#FCC84F;" d="M87.366,133.613c0.063,0.276,0.746-7.818,7.206-9.144c7.263-1.49,7.619,2.97,7.556,2.8
											c-0.063-0.17,0.36-7.253-7.172-7.253C89.629,120.017,85.494,125.384,87.366,133.613z"/>
										<g>
											<g>
												<path style="fill:#F3A61D;" d="M91.716,121.817c-0.393,0.975-1.387,1.647-2.444,1.621c-0.189-0.005-0.19-0.3,0-0.295
													c0.915,0.022,1.815-0.551,2.16-1.405C91.502,121.565,91.787,121.641,91.716,121.817L91.716,121.817z"/>
											</g>
											<g>
												<path style="fill:#F3A61D;" d="M92.503,120.781c0.017,0.909-0.385,1.821-1.096,2.396
													c-0.725,0.587-1.697,0.801-2.604,0.59c-0.185-0.043-0.107-0.327,0.078-0.284c0.816,0.19,1.714-0.007,2.359-0.549
													c0.63-0.528,0.983-1.334,0.967-2.152C92.204,120.591,92.499,120.591,92.503,120.781L92.503,120.781z"/>
											</g>
											<g>
												<path style="fill:#F3A61D;" d="M92.003,125.411c-0.877-0.334-1.878-0.13-2.641,0.389
													c-0.67,0.455-1.217,1.431-0.623,2.172c0.118,0.147-0.09,0.357-0.209,0.208c-0.662-0.826-0.239-1.927,0.52-2.516
													c0.835-0.648,2.027-0.92,3.031-0.537C92.257,125.194,92.181,125.479,92.003,125.411L92.003,125.411z"/>
											</g>
											<g>
												<path style="fill:#F3A61D;" d="M91.322,126.073c-0.472-0.127-1.005-0.013-1.371,0.316
													c-0.364,0.327-0.55,0.841-0.473,1.325c0.013,0.079-0.02,0.158-0.103,0.181c-0.07,0.02-0.169-0.024-0.181-0.103
													c-0.094-0.587,0.102-1.21,0.548-1.612c0.444-0.4,1.081-0.547,1.658-0.392C91.583,125.838,91.505,126.122,91.322,126.073
													L91.322,126.073z"/>
											</g>
											<g>
												<path style="fill:#F3A61D;" d="M88.871,124.611c0.06,0.002,0.114,0.031,0.145,0.084c0.034,0.058,0.03,0.131-0.011,0.184
													c-0.013,0.017-0.013,0.017-0.03,0.03c-0.017,0.013-0.017,0.013-0.037,0.021c-0.022,0.009-0.044,0.014-0.068,0.014
													c-0.03-0.001-0.058-0.008-0.084-0.024c-0.022-0.013-0.05-0.038-0.06-0.062c-0.011-0.017-0.017-0.035-0.018-0.055
													c-0.004-0.02-0.004-0.039,0.003-0.059c0.009-0.034,0.036-0.071,0.068-0.088c0.034-0.018,0.076-0.027,0.114-0.015
													c0.012,0.005,0.023,0.01,0.035,0.015c0.022,0.013,0.04,0.031,0.053,0.053c0.001,0.002,0.001,0.003,0.002,0.004
													c-0.008-0.01-0.015-0.02-0.023-0.03c0.001,0.001,0.002,0.003,0.004,0.004c-0.01-0.008-0.02-0.015-0.03-0.023
													c0.001,0.001,0.003,0.002,0.004,0.003c-0.012-0.005-0.023-0.01-0.035-0.015c0.002,0.001,0.003,0.001,0.005,0.002
													c-0.013-0.002-0.026-0.004-0.039-0.005c0.003,0,0.005,0,0.008,0c-0.013,0.002-0.026,0.004-0.039,0.005
													c0.002,0,0.003-0.001,0.005-0.001c-0.012,0.005-0.023,0.01-0.035,0.015c0.002-0.001,0.003-0.001,0.004-0.003
													c-0.01,0.008-0.02,0.015-0.03,0.023c0.001-0.001,0.003-0.002,0.004-0.004c-0.008,0.01-0.015,0.02-0.023,0.03
													c0-0.001,0.001-0.002,0.001-0.002c-0.005,0.012-0.01,0.023-0.015,0.035c0.001-0.002,0.001-0.003,0.001-0.005
													c-0.002,0.013-0.004,0.026-0.005,0.039c0-0.002,0-0.003,0-0.005c0.002,0.013,0.004,0.026,0.005,0.039
													c0-0.002-0.001-0.004-0.002-0.005c0.005,0.012,0.01,0.023,0.015,0.035c-0.001-0.002-0.002-0.003-0.003-0.005
													c0.008,0.01,0.015,0.02,0.023,0.03c-0.001-0.002-0.002-0.003-0.004-0.004c0.01,0.008,0.02,0.015,0.03,0.023
													c-0.001-0.001-0.003-0.002-0.005-0.003c0.012,0.005,0.023,0.01,0.035,0.015c-0.002-0.001-0.003-0.001-0.005-0.001
													c0.013,0.002,0.026,0.004,0.039,0.005c0,0-0.002,0-0.003,0c-0.039-0.001-0.077-0.016-0.104-0.043
													c-0.026-0.026-0.045-0.068-0.043-0.104c0.002-0.038,0.014-0.078,0.043-0.104
													C88.795,124.628,88.831,124.609,88.871,124.611L88.871,124.611z"/>
											</g>
											<g>
												<path style="fill:#F3A61D;" d="M87.36,128.099c0.507,0.113,0.751,0.623,0.775,1.102
													c0.019,0.376-0.087,1.256-0.655,1.124c-0.185-0.043-0.107-0.327,0.078-0.284c0.149,0.035,0.208-0.237,0.232-0.333
													c0.048-0.188,0.063-0.382,0.045-0.575c-0.031-0.331-0.207-0.672-0.554-0.75
													C87.096,128.342,87.174,128.057,87.36,128.099L87.36,128.099z"/>
											</g>
											<g>
												<path style="fill:#F3A61D;" d="M87.312,128.564c0.192,0.111,0.316,0.318,0.323,0.54
													c0.007,0.226-0.118,0.442-0.308,0.561c-0.065,0.041-0.165,0.016-0.202-0.053c-0.038-0.073-0.017-0.158,0.053-0.202
													c0.009-0.006,0.018-0.012,0.027-0.018c0.018-0.011-0.015,0.014,0,0c0.014-0.013,0.029-0.025,0.042-0.039
													c0.007-0.008,0.014-0.016,0.021-0.024c0.014-0.016-0.011,0.018,0-0.001c0.01-0.017,0.021-0.032,0.03-0.049
													c0.005-0.009,0.009-0.019,0.015-0.029c0.01-0.019-0.007,0.02,0,0c0.006-0.018,0.013-0.036,0.017-0.055
													c0.003-0.01,0.004-0.021,0.007-0.031c0.006-0.021-0.002,0.034,0.001-0.005c0.001-0.019,0.002-0.038,0.002-0.057
													c0-0.008-0.002-0.017-0.002-0.025c0-0.022,0.007,0.033,0-0.004c-0.004-0.018-0.008-0.036-0.013-0.054
													c-0.002-0.008-0.005-0.016-0.008-0.024c-0.005-0.013-0.011-0.024-0.001-0.005c-0.008-0.017-0.017-0.033-0.026-0.049
													c-0.004-0.007-0.009-0.014-0.013-0.021c-0.007-0.011-0.015-0.021-0.003-0.005c-0.012-0.015-0.024-0.029-0.037-0.042
													c-0.006-0.006-0.012-0.012-0.018-0.017c-0.009-0.009-0.02-0.017-0.004-0.005c-0.016-0.013-0.034-0.024-0.052-0.034
													c-0.067-0.039-0.096-0.135-0.053-0.202C87.153,128.55,87.24,128.523,87.312,128.564L87.312,128.564z"/>
											</g>
											<g>
												<path style="fill:#F3A61D;" d="M92.611,123.412c0.013,0.019,0.025,0.038,0.038,0.056
													c0.011,0.017,0.017,0.035,0.018,0.055c0.004,0.02,0.004,0.039-0.003,0.059c-0.009,0.034-0.036,0.071-0.068,0.088
													c-0.034,0.018-0.076,0.027-0.114,0.015c-0.038-0.012-0.066-0.035-0.088-0.068c-0.013-0.019-0.025-0.038-0.038-0.057
													c-0.011-0.017-0.017-0.035-0.017-0.055c-0.004-0.02-0.004-0.039,0.003-0.059c0.009-0.034,0.036-0.071,0.068-0.088
													c0.034-0.018,0.076-0.027,0.114-0.015C92.561,123.357,92.589,123.379,92.611,123.412L92.611,123.412z"/>
											</g>
											<g>
												<path style="fill:#F3A61D;" d="M93.186,124.71c-0.062-0.608-0.119-1.243,0.118-1.823c0.2-0.489,0.579-0.827,1.081-0.987
													c0.53-0.168,1.153-0.194,1.701-0.119c0.501,0.068,0.955,0.287,1.256,0.701c0.316,0.436,0.419,1.008,0.261,1.524
													c-0.055,0.181-0.34,0.104-0.284-0.078c0.154-0.504,0.015-1.064-0.356-1.44c-0.446-0.452-1.131-0.468-1.724-0.431
													c-0.602,0.037-1.238,0.178-1.564,0.739c-0.336,0.578-0.259,1.28-0.194,1.916
													C93.501,124.898,93.205,124.897,93.186,124.71L93.186,124.71z"/>
											</g>
											<g>
												<path style="fill:#F3A61D;" d="M96.46,124.129c-0.048-0.301-0.117-0.622-0.305-0.87
													c-0.177-0.235-0.455-0.346-0.745-0.309c-0.649,0.081-0.955,0.768-0.841,1.359c0.036,0.185-0.248,0.265-0.284,0.078
													c-0.111-0.578,0.071-1.235,0.595-1.556c0.512-0.314,1.175-0.209,1.531,0.28c0.198,0.272,0.282,0.614,0.334,0.94
													C96.774,124.236,96.49,124.316,96.46,124.129L96.46,124.129z"/>
											</g>
											<g>
												<path style="fill:#F3A61D;" d="M93.493,120.254c1.01,0.856,2.46,0.938,3.571,0.227c0.16-0.103,0.308,0.152,0.149,0.255
													c-1.228,0.787-2.82,0.667-3.928-0.273C93.139,120.339,93.349,120.132,93.493,120.254L93.493,120.254z"/>
											</g>
											<g>
												<path style="fill:#F3A61D;" d="M95.866,120.481c-0.405,0.211-0.886,0.216-1.296,0.018
													c-0.072-0.035-0.091-0.137-0.053-0.202c0.043-0.073,0.13-0.088,0.202-0.053c0.312,0.15,0.692,0.142,0.999-0.018
													c0.071-0.037,0.16-0.018,0.202,0.053C95.957,120.345,95.937,120.444,95.866,120.481L95.866,120.481z"/>
											</g>
											<g>
												<path style="fill:#F3A61D;" d="M97.679,121.609c0.012-0.006,0.025-0.012,0.038-0.019
													c0.036-0.018,0.074-0.026,0.114-0.015c0.034,0.009,0.071,0.036,0.088,0.068c0.018,0.034,0.027,0.076,0.015,0.114
													c-0.011,0.035-0.034,0.071-0.068,0.088c-0.013,0.006-0.025,0.012-0.038,0.019c-0.036,0.018-0.074,0.026-0.114,0.015
													c-0.034-0.009-0.071-0.036-0.088-0.068c-0.018-0.034-0.027-0.076-0.015-0.114
													C97.623,121.662,97.645,121.626,97.679,121.609L97.679,121.609z"/>
											</g>
											<g>
												<path style="fill:#F3A61D;" d="M93.293,121.696c-0.19,0-0.19-0.295,0-0.295
													C93.483,121.401,93.483,121.696,93.293,121.696L93.293,121.696z"/>
											</g>
											<g>
												<path style="fill:#F3A61D;" d="M99.641,121.777c-0.224,0.571-0.161,1.229,0.195,1.734
													c0.328,0.467,0.889,0.748,1.456,0.758c0.189,0.003,0.19,0.298,0,0.295c-0.662-0.012-1.295-0.335-1.687-0.871
													c-0.414-0.566-0.502-1.344-0.248-1.994C99.425,121.524,99.71,121.6,99.641,121.777L99.641,121.777z"/>
											</g>
											<g>
												<path style="fill:#F3A61D;" d="M100.382,122.263c-0.001,0.56,0.303,1.098,0.784,1.385
													c0.163,0.097,0.015,0.352-0.149,0.255c-0.569-0.34-0.93-0.977-0.93-1.64
													C100.087,122.074,100.382,122.073,100.382,122.263L100.382,122.263z"/>
											</g>
											<g>
												<path style="fill:#F3A61D;" d="M98.751,123.691c-0.19,0-0.19-0.295,0-0.295
													C98.941,123.396,98.941,123.691,98.751,123.691L98.751,123.691z"/>
											</g>
										</g>
									</g>
									<path style="fill:#FABCAB;" d="M84.507,133.02c0,1.193,0.967,2.161,2.161,2.161c1.193,0,2.161-0.967,2.161-2.161
										c0-1.193-0.967-2.161-2.161-2.161C85.474,130.859,84.507,131.826,84.507,133.02z"/>
								</g>
								<g>
									<path style="fill:#7F4965;" d="M99.152,127.792c0.373-0.216,0.757-0.321,1.189-0.318c0.2,0.002,0.399,0.03,0.594,0.074
										c0.089,0.02,0.178,0.044,0.263,0.078c0.07,0.027,0.148,0.064,0.216,0.102c0.085,0.047,0.129,0.098,0.171,0.165
										c0.064,0.063,0.126,0.125,0.179,0.198c0.063,0.085-0.002,0.272-0.127,0.251c-0.047-0.008-0.088-0.018-0.134-0.029
										c-0.096-0.025-0.197-0.024-0.292-0.053c-0.079-0.024-0.157-0.05-0.235-0.075c-0.127-0.04-0.252-0.076-0.384-0.093
										c-0.421-0.055-0.848,0.006-1.247,0.162c-0.115,0.045-0.255-0.042-0.297-0.147
										C99.002,127.992,99.041,127.857,99.152,127.792z"/>
									<path style="fill:#7F4965;" d="M91.597,127.735c0.125-0.107,0.26-0.194,0.406-0.273c0.127-0.069,0.259-0.153,0.394-0.198
										c0.226-0.075,0.464-0.117,0.701-0.136c0.269-0.021,0.535-0.021,0.8,0.031c0.253,0.05,0.508,0.125,0.745,0.225
										c0.123,0.052,0.208,0.17,0.167,0.308c-0.037,0.125-0.18,0.21-0.308,0.167c-0.426-0.142-0.899-0.177-1.346-0.132
										c-0.202,0.02-0.403,0.059-0.6,0.113c-0.142,0.038-0.286,0.048-0.426,0.098c-0.113,0.041-0.224,0.087-0.337,0.13
										C91.609,128.137,91.448,127.863,91.597,127.735z"/>
									<path style="fill:#7F4965;" d="M97.561,134.363c0.215-0.142,0.519-0.066,0.766-0.096c0.184-0.023,0.362-0.081,0.497-0.214
										c0.375-0.371-0.11-0.781-0.328-1.091c-0.477-0.678-0.812-1.575-0.754-2.413c0.014-0.202,0.311-0.161,0.337,0.019
										c0.073,0.505,0.17,0.998,0.387,1.464c0.108,0.232,0.238,0.458,0.386,0.666c0.139,0.195,0.307,0.369,0.431,0.574
										c0.246,0.41,0.159,0.892-0.198,1.205c-0.203,0.179-0.458,0.277-0.723,0.317c-0.25,0.038-0.613,0.065-0.817-0.103
										C97.442,134.607,97.451,134.435,97.561,134.363z"/>
									<path style="fill:#7F4965;" d="M93.895,130.402c0,0.49,0.16,0.886,0.358,0.886c0.198,0,0.358-0.397,0.358-0.886
										c0-0.49-0.16-0.886-0.358-0.886C94.055,129.516,93.895,129.913,93.895,130.402z"/>
									<path style="fill:#7F4965;" d="M100.304,130.859c0,0.49,0.16,0.886,0.358,0.886c0.198,0,0.358-0.397,0.358-0.886
										c0-0.49-0.16-0.886-0.358-0.886C100.464,129.972,100.304,130.369,100.304,130.859z"/>
								</g>
							</g>
						</g>
						<g>
							<path style="fill:#FCC84F;" d="M97.242,144.102c-0.597,0.136-4.024,3.563-9.971-0.652l-5.356,44.882
								c0,0,22.988-0.476,23.122-0.701C105.17,187.405,97.242,144.102,97.242,144.102z"/>
							<g>
								<path style="fill:#E47262;" d="M76.581,144.102c0,0,11.017-2.84,11.141-2.622c0.744,1.305,2.359,2.07,3.965,14.516
									c1.606,12.446,1.757,36.887,1.757,36.887l-16.863-2.911l1.093-30.563C77.106,158.565,80.495,148.318,76.581,144.102z"/>
								<path style="fill:#DD5B52;" d="M85.012,141.994l1.405,7.679c0,0,2.76-0.452,4.366,0.652c0,0-0.452-6.574-3.664-9.536
									C87.12,140.789,85.213,140.689,85.012,141.994z"/>
							</g>
							<g>
								<path style="fill:#FABCAB;" d="M115.206,162.94c0,0,1.202,2.265,3.204,1.998c2.003-0.267,14.523-4.035,14.523-4.035
									l3.123,4.256c0,0-18.716,11.277-25.317,5.943c-6.601-5.334-3.811-5.212-3.811-5.212L115.206,162.94z"/>
								<g>
									<path style="fill:#FABCAB;" d="M140.536,162.72c0.13,0.27,0.11,0.79-0.81,1.61c-1.53,1.35-6.58,0.65-6.58,0.65l-0.76-3.06
										c0.06-0.29,0.17-2,1.7-3.43c1.53-1.44,0.88-4.03,1.76-4.2c0.88-0.18,1.41,2.11,0.24,4.2c0,0,2.99-2.21,3.7-1.15
										c0.57,0.87,0.21,1.28,0.06,1.41h-0.01c-0.01,0-0.03,0.01-0.04,0.02c-0.01,0.01-0.01,0.01-0.01,0.01s0.07,0.03,0.17,0.09
										c0.36,0.21,1.1,0.8,0.41,1.76c0,0,0,0,0.01,0.01c0,0,0,0,0.01,0c0.04,0.02,0.13,0.08,0.22,0.17
										c0.23,0.25,0.44,0.75-0.3,1.64C140.306,162.45,140.456,162.53,140.536,162.72z"/>
									<g>
										<path style="fill:#F37E84;" d="M137.223,158.022c-0.018,0.014-0.034,0.032-0.052,0.046
											c0.137-0.069,0.276-0.134,0.417-0.192L137.223,158.022z"/>
										<path style="fill:#F37E84;" d="M137.506,163.49c-0.02,0.18,0.1,0.36,0.25,0.45c0.16,0.1,0.34,0.13,0.52,0.15
											c0.51,0.07,1.02,0.05,1.53-0.03c-0.17,0.2-0.43,0.3-0.68,0.28c-0.41,0.04-0.82,0.04-1.22-0.02
											c-0.13-0.02-0.25-0.04-0.36-0.1c-0.31-0.14-0.46-0.55-0.33-0.86c0.06-0.13,0.17-0.23,0.3-0.3
											c-0.03-0.01-0.07-0.02-0.1-0.04c-0.08-0.04-0.14-0.11-0.19-0.19c-0.22-0.32-0.3-0.73-0.2-1.11
											c0.01-0.03,0.02-0.06,0.04-0.09c-0.15-0.03-0.3-0.08-0.4-0.18c-0.19-0.21-0.18-0.52-0.14-0.8
											c0.02-0.18,0.04-0.36,0.12-0.52c0.03-0.06,0.08-0.11,0.13-0.16c-0.19-0.01-0.37-0.06-0.48-0.21
											c-0.07-0.09-0.1-0.19-0.11-0.29c-0.06-0.38,0.14-0.76,0.41-1.02c0.17-0.16,0.37-0.28,0.58-0.38
											c-0.33,0.27-0.62,0.62-0.69,1.04c-0.03,0.16-0.02,0.33,0.09,0.45c0.06,0.07,0.15,0.1,0.25,0.12
											c0.27,0.07,0.56,0.01,0.83-0.07c0.74-0.21,1.4-0.6,2.13-0.83c0,0,0.07,0.03,0.17,0.09c-0.03,0.04-0.08,0.07-0.12,0.09
											c-0.84,0.43-1.73,0.81-2.66,0.98c-0.09,0.02-0.17,0.03-0.26,0.03c-0.12,0.19-0.19,0.43-0.16,0.65
											c0.04,0.3,0.25,0.57,0.53,0.66c0.17,0.06,0.36,0.05,0.55,0.04c0.87-0.07,1.75-0.28,2.54-0.68c0,0,0,0,0.01,0
											c0.04,0.02,0.13,0.08,0.22,0.17c-0.7,0.28-1.43,0.54-2.17,0.72c-0.37,0.09-0.76,0.15-1.14,0.12
											c0.01,0.35,0.09,0.7,0.34,0.93c0.26,0.25,0.66,0.31,1.03,0.3c0.57-0.02,1.13-0.16,1.64-0.43c0,0,0.15,0.08,0.23,0.27
											c-0.88,0.33-1.81,0.55-2.73,0.4C137.656,163.21,137.526,163.32,137.506,163.49z"/>
									</g>
								</g>
								<polygon style="fill:#DD5B52;" points="104.66,146.837 117.455,164.165 107.817,170.135 100.087,157.141 								"/>
								<path style="fill:#EF8378;" d="M107.149,169.012l9.402-6.072c0,0,2.216,1.026,2.134,1.95
									c-0.082,0.925-8.529,7.706-9.914,6.882C107.386,170.949,107.038,169.611,107.149,169.012z"/>
								<path style="fill:#E47262;" d="M97.254,141.994c0,0,0.104,25.495,0.004,32.722c-0.1,7.227,1.305,18.168,1.305,18.168
									l9.254-3.334c0,0-2.276-17.164-2.63-27.503c-0.354-10.339-0.527-15.209-0.527-15.209L97.254,141.994z"/>
								<path style="fill:#DD5B52;" d="M97.242,151.78c0,0,0.217-2.208,1.974-1.757c1.756,0.452,1.706,0.627,1.706,0.627
									s-1.982-7.754-2.848-8.356c-0.866-0.602-1.869-0.827-1.869-0.827S97.187,146.561,97.242,151.78z"/>
							</g>
						</g>
					</g>
					<g>
						<path style="fill:#DD5B52;" d="M76.581,144.102l-11.707,17.626l9.744,6.522C74.618,168.25,92.108,146.609,76.581,144.102z"/>
						<g>
							<path style="fill:#FABCAB;" d="M87.706,180.11c-0.82-0.72-3.34-0.74-6.51-0.34l-7.26-9.48l-1.44-1.88l-6.43-5.29h-0.01
								l-0.21-0.18c-0.02,0.06-0.06,0.15-0.12,0.26c-0.44,0.85-1.77,3.16-1.44,5.93c0.08,0.65,0.25,1.32,0.54,2.01
								c1.6,3.77,11.74,11.44,12.97,12.37c1.09,1.16,2.72,1.93,4.77,1.25c0.07,0.34,1.2,1.71,1.59,1.94c0.73,0.41,0.95-0.05,1-0.14
								c0.19,0.2,0.42,0.33,0.7,0.25c0.32-0.09,0.4-0.35,0.41-0.64c0.43,0.44,0.68,0.4,0.93,0.3c0.77-0.3,0.26-3.37,0.1-4.07
								c0.4,0.87,0.93,3.16,1.81,2.97C90.226,185.13,88.276,180.62,87.706,180.11z"/>
							<g>
								<path style="fill:#F37E84;" d="M85.326,183.564c-0.067-0.067-0.208,0-0.17,0.099c0.131,0.336,0.336,0.639,0.489,0.967
									c0.196,0.419,0.305,0.858,0.459,1.291c0.041,0.115,0.246,0.109,0.23-0.031C86.247,185.125,85.882,184.113,85.326,183.564z"
									/>
								<path style="fill:#F37E84;" d="M83.992,184.014c-0.077-0.124-0.273-0.01-0.196,0.114c0.45,0.724,0.711,1.546,1.156,2.262
									c0.062,0.1,0.209,0.034,0.186-0.078C84.971,185.505,84.422,184.704,83.992,184.014z"/>
							</g>
						</g>
						<path style="fill:#EF8378;" d="M65.229,160.731l11.051,6.326c0,0-0.157,4.303-2.054,4.033
							c-0.998-0.142-10.723-3.917-10.844-5.2C63.26,164.608,64.558,160.308,65.229,160.731z"/>
					</g>
					<path style="fill:#F3A61D;" d="M92.215,106.58c-7.9,0-14.3,0.78-14.3,1.75c0,0.97,6.4,1.76,14.3,1.76s14.31-0.79,14.31-1.76
						C106.525,107.36,100.115,106.58,92.215,106.58z M92.22,109.417c-6.37,0-11.545-0.73-11.545-1.087
						c0-0.443,5.175-1.209,11.545-1.209c6.38,0,11.545,0.73,11.545,1.209C103.765,108.652,98.6,109.417,92.22,109.417z"/>
				</g>
			</g>
		</g>
		<g>
			<g>
				<g>
					<path style="fill:#FCC84F;" d="M254.755,102.904c-0.197,0.046-0.402,0.067-0.613,0.06c-1.313-0.041-2.343-1.139-2.301-2.451
						l0.142-4.484c0.296-9.441,6.061-18.033,14.684-21.889c6.274-2.806,10.129-9.056,9.819-15.922
						c-0.431-9.549-7.935-17.387-17.457-18.232c-4.772-0.423-9.408,1.057-13.052,4.168c-3.643,3.112-5.831,7.458-6.16,12.237
						l-0.351,5.093c-0.09,1.31-1.226,2.299-2.535,2.208c-1.31-0.09-2.298-1.225-2.208-2.535l0.351-5.093
						c0.417-6.064,3.193-11.578,7.816-15.525c4.623-3.948,10.502-5.826,16.558-5.289c11.883,1.054,21.249,10.836,21.786,22.753
						c0.399,8.83-4.558,16.868-12.628,20.476c-6.972,3.118-11.633,10.065-11.873,17.699l-0.141,4.485
						C256.558,101.765,255.779,102.667,254.755,102.904z"/>
				</g>
				<path style="fill:#FCC84F;" d="M258.914,112.363c0.446,1.925-0.753,3.848-2.678,4.294c-1.926,0.446-3.848-0.753-4.295-2.678
					c-0.446-1.925,0.753-3.848,2.678-4.294C256.545,109.238,258.467,110.437,258.914,112.363z"/>
			</g>
			<g>
				<g>
					<path style="fill:#FCC84F;" d="M291.118,126.902c-0.158-0.023-0.314-0.067-0.467-0.132c-0.951-0.408-1.391-1.51-0.983-2.461
						l1.395-3.25c2.936-6.842,9.64-11.487,17.078-11.834c5.412-0.252,10.04-3.729,11.79-8.856c2.433-7.131-0.817-15.043-7.56-18.405
						c-3.38-1.685-7.208-1.933-10.778-0.7c-3.569,1.234-6.426,3.793-8.044,7.206l-1.724,3.636c-0.443,0.935-1.561,1.334-2.496,0.89
						c-0.935-0.443-1.334-1.561-0.89-2.496l1.724-3.636c2.052-4.33,5.677-7.576,10.206-9.142c4.529-1.566,9.384-1.251,13.673,0.887
						c8.416,4.195,12.472,14.07,9.435,22.969c-2.25,6.594-8.202,11.065-15.162,11.389c-6.014,0.28-11.434,4.037-13.809,9.569
						l-1.395,3.25C292.769,126.584,291.938,127.022,291.118,126.902z"/>
				</g>
				<path style="fill:#FCC84F;" d="M291.446,135.04c-0.227,1.541-1.66,2.607-3.202,2.38c-1.541-0.227-2.607-1.66-2.38-3.202
					c0.227-1.541,1.66-2.607,3.202-2.38C290.607,132.065,291.673,133.498,291.446,135.04z"/>
			</g>
			<g>
				<g>
					<path style="fill:#FCC84F;" d="M205.502,116.213c-0.133,0.088-0.278,0.161-0.436,0.214c-0.98,0.333-2.044-0.192-2.377-1.172
						l-1.137-3.349c-2.395-7.05-0.52-14.987,4.776-20.221c3.854-3.808,4.968-9.488,2.838-14.47
						c-2.962-6.928-10.671-10.635-17.933-8.621c-3.639,1.009-6.65,3.385-8.478,6.691c-1.827,3.305-2.238,7.119-1.158,10.737
						l1.151,3.856c0.296,0.991-0.268,2.036-1.259,2.331c-0.992,0.296-2.035-0.267-2.332-1.259l-1.151-3.856
						c-1.372-4.591-0.849-9.429,1.469-13.623c2.318-4.194,6.138-7.208,10.756-8.488c9.062-2.513,18.683,2.113,22.379,10.759
						c2.74,6.407,1.307,13.711-3.65,18.609c-4.282,4.232-5.798,10.65-3.862,16.35l1.137,3.349
						C206.516,114.872,206.192,115.754,205.502,116.213z"/>
				</g>
				<path style="fill:#FCC84F;" d="M211.19,122.042c0.863,1.298,0.51,3.049-0.787,3.911c-1.297,0.863-3.048,0.51-3.911-0.787
					c-0.863-1.297-0.51-3.049,0.787-3.911C208.576,120.392,210.327,120.744,211.19,122.042z"/>
			</g>
		</g>
	</g>
</g>
</svg>
